<svg xmlns = "http://www.w3.org/2000/svg" width = "1000" height = "1000">
<g>
<polygon points = "603.892, 981.464 586.813, 948.346 509.244, 999.145 606.858, 999.145 "
fill = "blue" stroke = "black"/>
</g>
<g>
<polygon points = "568.762, 172.471 562.612, 194.272 564.152, 196.393 619.637, 216.863 635.749, 210.456 614.592, 184.707 "
fill = "blue" stroke = "black"/>
</g>
<g>
<polygon points = "922.000, 672.894 955.997, 640.384 956.831, 638.325 897.862, 599.647 890.226, 600.155 869.230, 641.811 869.461, 667.054 903.750, 681.232 "
fill = "blue" stroke = "black"/>
</g>
<g>
<polygon points = "208.123, 239.577 190.137, 231.295 172.560, 232.640 166.557, 238.553 163.507, 246.240 168.120, 284.989 "
fill = "blue" stroke = "black"/>
</g>
<g>
<polygon points = "510.273, 268.799 497.117, 274.739 483.628, 319.932 546.548, 318.939 543.126, 301.767 "
fill = "blue" stroke = "black"/>
</g>
<g>
<polygon points = "103.378, 961.244 75.636, 968.376 45.413, 999.145 102.137, 999.145 "
fill = "blue" stroke = "black"/>
</g>
<g>
<polygon points = "109.766, 871.581 125.706, 892.524 158.977, 922.807 212.624, 938.755 217.436, 930.706 223.812, 870.841 211.670, 841.501 160.549, 827.578 123.209, 835.001 119.352, 838.067 "
fill = "blue" stroke = "black"/>
</g>
<g>
<polygon points = "102.421, 534.404 128.561, 588.562 151.416, 585.454 171.679, 581.897 120.264, 518.490 118.248, 517.521 "
fill = "blue" stroke = "black"/>
</g>
<g>
<polygon points = "408.780, 967.638 369.021, 932.966 363.818, 939.714 363.137, 999.145 408.904, 999.145 "
fill = "blue" stroke = "black"/>
</g>
<g>
<polygon points = "627.694, 405.793 576.226, 436.207 575.527, 437.454 589.638, 449.997 639.537, 444.223 641.636, 442.130 642.213, 423.118 "
fill = "blue" stroke = "black"/>
</g>
<g>
<polygon points = "645.872, 799.112 643.666, 831.099 674.242, 883.870 693.206, 859.854 701.723, 836.887 691.848, 811.955 "
fill = "blue" stroke = "black"/>
</g>
<g>
<polygon points = "88.314, 660.630 87.034, 654.293 69.728, 628.357 21.290, 616.109 4.334, 623.775 4.334, 656.374 "
fill = "blue" stroke = "black"/>
</g>
<g>
<polygon points = "859.466, 219.402 775.939, 200.692 754.626, 218.086 788.073, 263.103 820.984, 262.416 839.040, 255.557 "
fill = "blue" stroke = "black"/>
</g>
<g>
<polygon points = "888.935, 738.010 902.910, 685.256 903.750, 681.232 869.461, 667.054 855.025, 677.107 862.378, 733.531 "
fill = "blue" stroke = "black"/>
</g>
<g>
<polygon points = "899.758, 38.805 902.944, 63.404 983.952, 85.852 998.749, 76.482 998.749, 4.822 901.817, 4.822 "
fill = "blue" stroke = "black"/>
</g>
<g>
<polygon points = "394.757, 845.136 385.979, 868.392 465.010, 897.671 525.201, 828.770 509.822, 819.475 420.429, 826.624 407.770, 832.272 "
fill = "blue" stroke = "black"/>
</g>
<g>
<polygon points = "167.512, 146.048 168.945, 163.703 171.658, 165.118 271.908, 184.711 273.901, 181.402 264.089, 157.034 207.643, 112.406 "
fill = "blue" stroke = "black"/>
</g>
<g>
<polygon points = "983.952, 85.852 920.516, 168.506 917.967, 186.630 919.617, 188.210 958.291, 202.631 998.749, 205.877 998.749, 76.482 "
fill = "blue" stroke = "black"/>
</g>
<g>
<polygon points = "417.240, 374.233 407.216, 369.922 375.567, 406.996 401.731, 427.810 422.867, 399.501 "
fill = "blue" stroke = "black"/>
</g>
<g>
<polygon points = "799.212, 674.448 789.771, 682.191 789.450, 744.586 800.589, 753.256 804.735, 753.172 862.378, 733.531 855.025, 677.107 "
fill = "blue" stroke = "black"/>
</g>
<g>
<polygon points = "110.594, 617.727 110.578, 599.346 103.783, 599.073 89.451, 602.610 69.728, 628.357 87.034, 654.293 "
fill = "blue" stroke = "black"/>
</g>
<g>
<polygon points = "33.648, 948.925 4.334, 920.434 4.334, 999.145 24.469, 999.145 "
fill = "blue" stroke = "black"/>
</g>
<g>
<polygon points = "277.654, 761.991 289.359, 762.038 304.489, 750.345 308.293, 719.885 245.654, 696.646 "
fill = "blue" stroke = "black"/>
</g>
<g>
<polygon points = "823.811, 317.399 883.464, 312.021 839.040, 255.557 820.984, 262.416 821.065, 306.104 "
fill = "blue" stroke = "black"/>
</g>
<g>
<polygon points = "236.293, 514.327 250.219, 474.631 197.086, 448.347 178.350, 509.055 183.839, 537.317 "
fill = "blue" stroke = "black"/>
</g>
<g>
<polygon points = "460.180, 478.353 455.634, 477.702 436.677, 480.546 400.711, 547.178 448.420, 585.749 503.495, 552.348 "
fill = "blue" stroke = "black"/>
</g>
<g>
<polygon points = "69.418, 257.955 126.960, 292.638 131.480, 294.058 131.539, 271.435 64.404, 208.929 44.241, 216.842 "
fill = "blue" stroke = "black"/>
</g>
<g>
<polygon points = "787.900, 524.428 785.425, 518.505 695.490, 599.578 693.060, 628.893 754.215, 631.427 "
fill = "blue" stroke = "black"/>
</g>
<g>
<polygon points = "374.388, 406.120 332.263, 406.331 333.363, 425.391 379.744, 456.538 402.269, 449.037 401.731, 427.810 375.567, 406.996 "
fill = "blue" stroke = "black"/>
</g>
<g>
<polygon points = "403.264, 763.901 407.770, 832.272 420.429, 826.624 461.830, 736.571 458.152, 736.505 "
fill = "blue" stroke = "black"/>
</g>
<g>
<polygon points = "992.027, 429.682 929.460, 452.587 921.221, 475.361 969.144, 528.764 981.369, 537.770 998.749, 546.357 998.749, 430.143 "
fill = "blue" stroke = "black"/>
</g>
<g>
<polygon points = "186.233, 593.311 136.826, 657.645 135.032, 663.402 157.040, 700.940 167.503, 703.702 210.075, 694.459 224.686, 679.649 239.858, 634.997 227.283, 609.265 "
fill = "blue" stroke = "black"/>
</g>
<g>
<polygon points = "21.529, 523.533 52.911, 545.685 100.343, 467.996 98.375, 455.193 83.905, 450.336 4.334, 459.960 4.334, 505.673 "
fill = "blue" stroke = "black"/>
</g>
<g>
<polygon points = "138.547, 513.503 188.118, 442.509 179.807, 437.325 172.904, 435.209 149.685, 432.830 98.375, 455.193 100.343, 467.996 118.248, 517.521 120.264, 518.490 "
fill = "blue" stroke = "black"/>
</g>
<g>
<polygon points = "894.696, 875.357 913.833, 873.979 942.126, 828.449 942.107, 828.049 871.605, 832.561 870.937, 833.308 875.997, 862.826 886.971, 874.814 "
fill = "blue" stroke = "black"/>
</g>
<g>
<polygon points = "470.300, 733.816 486.438, 709.317 455.882, 666.315 409.349, 680.200 404.630, 712.870 458.152, 736.505 461.830, 736.571 "
fill = "blue" stroke = "black"/>
</g>
<g>
<polygon points = "652.884, 18.977 685.554, 48.976 698.093, 4.822 649.937, 4.822 "
fill = "blue" stroke = "black"/>
</g>
<g>
<polygon points = "852.288, 93.432 821.007, 86.395 789.600, 142.384 791.555, 144.639 835.446, 130.744 "
fill = "blue" stroke = "black"/>
</g>
<g>
<polygon points = "218.123, 784.757 175.155, 776.703 160.549, 827.578 211.670, 841.501 "
fill = "blue" stroke = "black"/>
</g>
<g>
<polygon points = "174.781, 582.631 183.839, 537.317 178.350, 509.055 138.547, 513.503 120.264, 518.490 171.679, 581.897 "
fill = "blue" stroke = "black"/>
</g>
<g>
<polygon points = "390.378, 246.998 366.040, 268.117 411.562, 306.979 435.745, 305.454 443.158, 254.302 "
fill = "blue" stroke = "black"/>
</g>
<g>
<polygon points = "660.988, 452.574 693.993, 449.677 697.570, 416.519 672.789, 405.316 642.213, 423.118 641.636, 442.130 "
fill = "blue" stroke = "black"/>
</g>
<g>
<polygon points = "460.842, 243.907 449.184, 246.049 443.158, 254.302 435.745, 305.454 458.082, 326.625 466.729, 329.217 483.628, 319.932 497.117, 274.739 "
fill = "blue" stroke = "black"/>
</g>
<g>
<polygon points = "805.521, 655.856 846.222, 637.850 810.438, 576.484 "
fill = "blue" stroke = "black"/>
</g>
<g>
<polygon points = "653.803, 526.498 696.331, 514.430 662.069, 455.307 "
fill = "blue" stroke = "black"/>
</g>
<g>
<polygon points = "991.945, 896.209 958.549, 869.456 928.061, 895.887 925.728, 916.686 954.532, 936.548 "
fill = "blue" stroke = "black"/>
</g>
<g>
<polygon points = "301.399, 490.709 303.494, 492.860 322.678, 508.071 379.744, 456.538 333.363, 425.391 "
fill = "blue" stroke = "black"/>
</g>
<g>
<polygon points = "809.200, 554.233 810.438, 576.484 846.222, 637.850 869.230, 641.811 890.226, 600.155 "
fill = "blue" stroke = "black"/>
</g>
<g>
<polygon points = "239.284, 571.857 236.261, 595.421 337.064, 537.968 322.678, 508.071 303.494, 492.860 "
fill = "blue" stroke = "black"/>
</g>
<g>
<polygon points = "769.505, 671.064 723.156, 675.631 708.643, 740.120 726.602, 754.424 738.356, 755.690 789.450, 744.586 789.771, 682.191 "
fill = "blue" stroke = "black"/>
</g>
<g>
<polygon points = "743.516, 797.696 765.190, 840.987 790.842, 853.981 802.549, 838.382 800.589, 753.256 789.450, 744.586 738.356, 755.690 "
fill = "blue" stroke = "black"/>
</g>
<g>
<polygon points = "449.007, 600.602 544.429, 621.667 549.345, 568.071 549.097, 567.619 540.022, 554.814 503.495, 552.348 448.420, 585.749 "
fill = "blue" stroke = "black"/>
</g>
<g>
<polygon points = "974.274, 954.708 998.710, 999.145 998.749, 999.145 998.749, 955.722 "
fill = "blue" stroke = "black"/>
</g>
<g>
<polygon points = "586.990, 946.223 518.017, 922.429 487.805, 937.051 503.792, 999.145 509.244, 999.145 586.813, 948.346 "
fill = "blue" stroke = "black"/>
</g>
<g>
<polygon points = "660.012, 166.868 599.975, 115.764 614.592, 184.707 635.749, 210.456 642.582, 211.439 659.538, 200.351 "
fill = "blue" stroke = "black"/>
</g>
<g>
<polygon points = "802.549, 838.382 870.937, 833.308 871.605, 832.561 871.872, 800.114 804.735, 753.172 800.589, 753.256 "
fill = "blue" stroke = "black"/>
</g>
<g>
<polygon points = "713.988, 938.190 730.613, 943.823 738.891, 935.985 792.359, 866.099 790.572, 857.539 739.102, 874.575 "
fill = "blue" stroke = "black"/>
</g>
<g>
<polygon points = "242.057, 49.999 270.098, 83.677 325.087, 79.017 340.531, 36.841 340.401, 35.778 "
fill = "blue" stroke = "black"/>
</g>
<g>
<polygon points = "739.102, 874.575 790.572, 857.539 790.842, 853.981 765.190, 840.987 715.160, 835.505 701.723, 836.887 693.206, 859.854 "
fill = "blue" stroke = "black"/>
</g>
<g>
<polygon points = "589.020, 269.452 568.503, 324.260 581.406, 332.981 586.862, 332.714 634.718, 317.592 652.764, 301.257 656.014, 294.799 655.266, 293.345 "
fill = "blue" stroke = "black"/>
</g>
<g>
<polygon points = "145.317, 707.707 137.246, 773.286 141.953, 776.510 166.535, 771.414 167.503, 703.702 157.040, 700.940 "
fill = "blue" stroke = "black"/>
</g>
<g>
<polygon points = "848.156, 931.652 848.903, 930.095 830.663, 906.001 818.352, 898.883 798.386, 924.112 792.761, 949.403 "
fill = "blue" stroke = "black"/>
</g>
<g>
<polygon points = "59.376, 766.487 119.352, 838.067 123.209, 835.001 141.953, 776.510 137.246, 773.286 70.984, 741.116 70.443, 741.143 "
fill = "blue" stroke = "black"/>
</g>
<g>
<polygon points = "119.015, 952.673 106.372, 958.796 103.378, 961.244 102.137, 999.145 120.579, 999.145 "
fill = "blue" stroke = "black"/>
</g>
<g>
<polygon points = "655.266, 293.345 656.014, 294.799 683.050, 293.197 709.582, 266.491 726.356, 210.063 721.949, 205.480 659.538, 200.351 642.582, 211.439 "
fill = "blue" stroke = "black"/>
</g>
<g>
<polygon points = "447.129, 947.132 480.666, 932.275 465.010, 897.671 385.979, 868.392 381.943, 871.897 "
fill = "blue" stroke = "black"/>
</g>
<g>
<polygon points = "319.479, 309.814 325.535, 296.080 254.908, 256.303 253.470, 260.890 254.512, 305.385 "
fill = "blue" stroke = "black"/>
</g>
<g>
<polygon points = "633.184, 726.477 614.427, 712.324 574.852, 732.560 544.330, 800.519 540.169, 829.438 552.074, 832.323 565.807, 824.936 627.431, 780.073 "
fill = "blue" stroke = "black"/>
</g>
<g>
<polygon points = "172.769, 323.619 166.405, 317.972 164.925, 317.380 126.667, 368.572 149.685, 432.830 172.904, 435.209 "
fill = "blue" stroke = "black"/>
</g>
<g>
<polygon points = "685.554, 48.976 705.129, 95.195 710.396, 97.720 715.956, 97.823 740.451, 63.983 732.067, 4.822 698.093, 4.822 "
fill = "blue" stroke = "black"/>
</g>
<g>
<polygon points = "302.615, 815.193 300.446, 828.638 356.572, 881.167 366.753, 883.169 381.943, 871.897 385.979, 868.392 394.757, 845.136 352.682, 783.986 "
fill = "blue" stroke = "black"/>
</g>
<g>
<polygon points = "424.786, 20.235 433.199, 23.934 492.925, 4.822 414.193, 4.822 "
fill = "blue" stroke = "black"/>
</g>
<g>
<polygon points = "680.052, 917.092 673.849, 884.904 662.523, 882.529 602.858, 876.216 585.511, 877.719 585.225, 906.474 588.389, 943.495 "
fill = "blue" stroke = "black"/>
</g>
<g>
<polygon points = "898.381, 598.639 981.369, 537.770 969.144, 528.764 908.271, 563.863 "
fill = "blue" stroke = "black"/>
</g>
<g>
<polygon points = "340.236, 150.422 325.087, 79.017 270.098, 83.677 262.083, 119.779 264.089, 157.034 273.901, 181.402 "
fill = "blue" stroke = "black"/>
</g>
<g>
<polygon points = "431.237, 207.725 392.950, 195.669 390.378, 246.998 443.158, 254.302 449.184, 246.049 "
fill = "blue" stroke = "black"/>
</g>
<g>
<polygon points = "575.820, 381.432 587.848, 392.311 624.281, 399.622 627.993, 384.382 586.862, 332.714 581.406, 332.981 "
fill = "blue" stroke = "black"/>
</g>
<g>
<polygon points = "622.258, 503.343 585.181, 498.580 555.316, 510.592 540.022, 554.814 549.097, 567.619 637.422, 520.095 "
fill = "blue" stroke = "black"/>
</g>
<g>
<polygon points = "835.446, 130.744 791.555, 144.639 799.456, 163.721 860.868, 189.402 "
fill = "blue" stroke = "black"/>
</g>
<g>
<polygon points = "565.786, 245.558 553.890, 247.947 543.126, 301.767 546.548, 318.939 549.141, 320.830 568.503, 324.260 589.020, 269.452 579.786, 247.903 "
fill = "blue" stroke = "black"/>
</g>
<g>
<polygon points = "715.160, 835.505 765.190, 840.987 743.516, 797.696 "
fill = "blue" stroke = "black"/>
</g>
<g>
<polygon points = "240.165, 48.884 214.602, 84.382 262.083, 119.779 270.098, 83.677 242.057, 49.999 "
fill = "blue" stroke = "black"/>
</g>
<g>
<polygon points = "684.444, 367.896 681.443, 370.963 672.789, 405.316 697.570, 416.519 704.897, 414.468 713.096, 390.286 704.593, 365.429 "
fill = "blue" stroke = "black"/>
</g>
<g>
<polygon points = "487.468, 709.067 492.619, 704.519 548.191, 643.757 546.334, 639.065 452.334, 631.129 455.882, 666.315 486.438, 709.317 "
fill = "blue" stroke = "black"/>
</g>
<g>
<polygon points = "579.786, 247.903 589.020, 269.452 655.266, 293.345 642.582, 211.439 635.749, 210.456 619.637, 216.863 "
fill = "blue" stroke = "black"/>
</g>
<g>
<polygon points = "768.523, 291.222 766.033, 301.155 766.627, 329.303 821.065, 306.104 820.984, 262.416 788.073, 263.103 "
fill = "blue" stroke = "black"/>
</g>
<g>
<polygon points = "830.191, 419.313 928.381, 450.451 916.434, 419.027 889.889, 398.121 840.036, 402.877 "
fill = "blue" stroke = "black"/>
</g>
<g>
<polygon points = "740.317, 399.515 754.949, 347.973 727.538, 347.895 704.593, 365.429 713.096, 390.286 "
fill = "blue" stroke = "black"/>
</g>
<g>
<polygon points = "963.990, 298.315 962.721, 298.671 925.106, 319.903 944.461, 353.616 969.711, 362.483 998.749, 348.931 998.749, 315.925 "
fill = "blue" stroke = "black"/>
</g>
<g>
<polygon points = "313.334, 383.586 294.823, 378.175 263.875, 474.078 301.399, 490.709 333.363, 425.391 332.263, 406.331 "
fill = "blue" stroke = "black"/>
</g>
<g>
<polygon points = "830.663, 906.001 848.903, 930.095 877.803, 930.231 883.759, 925.338 886.971, 874.814 875.997, 862.826 "
fill = "blue" stroke = "black"/>
</g>
<g>
<polygon points = "133.842, 256.547 131.539, 271.435 131.480, 294.058 132.702, 295.448 157.965, 307.952 168.120, 284.989 163.507, 246.240 "
fill = "blue" stroke = "black"/>
</g>
<g>
<polygon points = "100.642, 872.013 50.149, 894.384 52.642, 928.455 66.026, 935.875 76.865, 933.829 125.706, 892.524 109.766, 871.581 "
fill = "blue" stroke = "black"/>
</g>
<g>
<polygon points = "551.370, 120.329 540.858, 124.554 499.933, 179.803 499.906, 181.851 507.875, 206.474 562.612, 194.272 568.762, 172.471 "
fill = "blue" stroke = "black"/>
</g>
<g>
<polygon points = "313.217, 645.386 338.090, 538.823 337.064, 537.968 236.261, 595.421 227.283, 609.265 239.858, 634.997 "
fill = "blue" stroke = "black"/>
</g>
<g>
<polygon points = "178.350, 509.055 197.086, 448.347 195.839, 446.832 188.118, 442.509 138.547, 513.503 "
fill = "blue" stroke = "black"/>
</g>
<g>
<polygon points = "270.326, 202.357 252.852, 238.180 254.908, 256.303 325.535, 296.080 338.758, 290.062 355.754, 268.166 346.355, 251.695 "
fill = "blue" stroke = "black"/>
</g>
<g>
<polygon points = "862.324, 49.143 899.758, 38.805 901.817, 4.822 852.071, 4.822 "
fill = "blue" stroke = "black"/>
</g>
<g>
<polygon points = "955.997, 640.384 922.000, 672.894 947.005, 741.753 956.561, 765.257 977.358, 773.853 985.934, 771.761 "
fill = "blue" stroke = "black"/>
</g>
<g>
<polygon points = "792.761, 949.403 798.386, 924.112 738.891, 935.985 730.613, 943.823 766.727, 990.343 "
fill = "blue" stroke = "black"/>
</g>
<g>
<polygon points = "969.711, 362.483 944.461, 353.616 916.434, 419.027 928.381, 450.451 929.460, 452.587 992.027, 429.682 "
fill = "blue" stroke = "black"/>
</g>
<g>
<polygon points = "669.567, 146.017 710.396, 97.720 705.129, 95.195 646.865, 83.026 630.221, 87.809 610.163, 98.847 "
fill = "blue" stroke = "black"/>
</g>
<g>
<polygon points = "480.666, 932.275 487.805, 937.051 518.017, 922.429 524.151, 905.008 536.229, 830.101 525.201, 828.770 465.010, 897.671 "
fill = "blue" stroke = "black"/>
</g>
<g>
<polygon points = "956.561, 765.257 947.005, 741.753 902.910, 685.256 888.935, 738.010 908.301, 755.684 "
fill = "blue" stroke = "black"/>
</g>
<g>
<polygon points = "70.529, 355.788 71.094, 356.374 126.667, 368.572 164.925, 317.380 157.965, 307.952 132.702, 295.448 "
fill = "blue" stroke = "black"/>
</g>
<g>
<polygon points = "446.511, 617.785 452.334, 631.129 546.334, 639.065 544.429, 621.667 449.007, 600.602 "
fill = "blue" stroke = "black"/>
</g>
<g>
<polygon points = "402.269, 449.037 379.744, 456.538 322.678, 508.071 337.064, 537.968 338.090, 538.823 377.758, 550.163 400.711, 547.178 436.677, 480.546 "
fill = "blue" stroke = "black"/>
</g>
<g>
<polygon points = "585.181, 498.580 622.258, 503.343 639.537, 444.223 589.638, 449.997 "
fill = "blue" stroke = "black"/>
</g>
<g>
<polygon points = "768.084, 993.480 766.727, 990.343 730.613, 943.823 713.988, 938.190 696.458, 935.394 681.962, 962.588 680.316, 973.073 682.920, 999.145 768.896, 999.145 "
fill = "blue" stroke = "black"/>
</g>
<g>
<polygon points = "881.394, 336.390 830.925, 359.309 840.036, 402.877 889.889, 398.121 "
fill = "blue" stroke = "black"/>
</g>
<g>
<polygon points = "527.851, 238.051 507.706, 208.432 460.842, 243.907 497.117, 274.739 510.273, 268.799 "
fill = "blue" stroke = "black"/>
</g>
<g>
<polygon points = "507.875, 206.474 507.706, 208.432 527.851, 238.051 553.890, 247.947 565.786, 245.558 564.152, 196.393 562.612, 194.272 "
fill = "blue" stroke = "black"/>
</g>
<g>
<polygon points = "630.221, 87.809 646.865, 83.026 652.884, 18.977 649.937, 4.822 612.630, 4.822 "
fill = "blue" stroke = "black"/>
</g>
<g>
<polygon points = "124.352, 635.573 136.826, 657.645 186.233, 593.311 174.781, 582.631 171.679, 581.897 151.416, 585.454 "
fill = "blue" stroke = "black"/>
</g>
<g>
<polygon points = "541.962, 11.277 569.991, 100.807 594.075, 104.913 610.163, 98.847 630.221, 87.809 612.630, 4.822 542.959, 4.822 "
fill = "blue" stroke = "black"/>
</g>
<g>
<polygon points = "65.681, 731.444 89.143, 662.027 88.314, 660.630 4.334, 656.374 4.334, 686.679 "
fill = "blue" stroke = "black"/>
</g>
<g>
<polygon points = "818.352, 898.883 830.663, 906.001 875.997, 862.826 870.937, 833.308 802.549, 838.382 790.842, 853.981 790.572, 857.539 792.359, 866.099 "
fill = "blue" stroke = "black"/>
</g>
<g>
<polygon points = "748.179, 431.517 740.317, 399.515 713.096, 390.286 704.897, 414.468 "
fill = "blue" stroke = "black"/>
</g>
<g>
<polygon points = "212.624, 938.755 158.977, 922.807 119.015, 952.673 120.579, 999.145 227.761, 999.145 "
fill = "blue" stroke = "black"/>
</g>
<g>
<polygon points = "207.381, 360.787 179.807, 437.325 188.118, 442.509 195.839, 446.832 246.303, 386.810 "
fill = "blue" stroke = "black"/>
</g>
<g>
<polygon points = "629.577, 840.595 643.666, 831.099 645.872, 799.112 627.431, 780.073 565.807, 824.936 "
fill = "blue" stroke = "black"/>
</g>
<g>
<polygon points = "326.778, 692.772 364.394, 711.547 389.042, 664.688 377.230, 641.397 371.372, 639.039 320.178, 650.463 "
fill = "blue" stroke = "black"/>
</g>
<g>
<polygon points = "875.558, 199.778 860.868, 189.402 799.456, 163.721 775.939, 200.692 859.466, 219.402 "
fill = "blue" stroke = "black"/>
</g>
<g>
<polygon points = "772.781, 348.602 788.611, 470.272 806.055, 446.637 801.538, 352.328 "
fill = "blue" stroke = "black"/>
</g>
<g>
<polygon points = "628.441, 847.223 602.858, 876.216 662.523, 882.529 "
fill = "blue" stroke = "black"/>
</g>
<g>
<polygon points = "70.984, 741.116 137.246, 773.286 145.317, 707.707 "
fill = "blue" stroke = "black"/>
</g>
<g>
<polygon points = "425.851, 964.029 447.129, 947.132 381.943, 871.897 366.753, 883.169 369.021, 932.966 408.780, 967.638 "
fill = "blue" stroke = "black"/>
</g>
<g>
<polygon points = "610.239, 702.710 599.156, 668.730 548.191, 643.757 492.619, 704.519 "
fill = "blue" stroke = "black"/>
</g>
<g>
<polygon points = "89.143, 662.027 65.681, 731.444 70.443, 741.143 70.984, 741.116 145.317, 707.707 157.040, 700.940 135.032, 663.402 "
fill = "blue" stroke = "black"/>
</g>
<g>
<polygon points = "356.572, 881.167 300.446, 828.638 281.908, 831.939 223.812, 870.841 217.436, 930.706 "
fill = "blue" stroke = "black"/>
</g>
<g>
<polygon points = "805.655, 72.063 762.668, 132.670 789.600, 142.384 821.007, 86.395 "
fill = "blue" stroke = "black"/>
</g>
<g>
<polygon points = "378.770, 356.504 373.404, 349.592 360.498, 353.529 313.334, 383.586 332.263, 406.331 374.388, 406.120 "
fill = "blue" stroke = "black"/>
</g>
<g>
<polygon points = "908.301, 755.684 888.935, 738.010 862.378, 733.531 804.735, 753.172 871.872, 800.114 "
fill = "blue" stroke = "black"/>
</g>
<g>
<polygon points = "559.116, 732.003 519.649, 726.369 535.806, 763.997 "
fill = "blue" stroke = "black"/>
</g>
<g>
<polygon points = "106.372, 958.796 76.865, 933.829 66.026, 935.875 75.636, 968.376 103.378, 961.244 "
fill = "blue" stroke = "black"/>
</g>
<g>
<polygon points = "125.053, 589.705 81.735, 547.673 69.213, 550.722 103.783, 599.073 110.578, 599.346 "
fill = "blue" stroke = "black"/>
</g>
<g>
<polygon points = "208.781, 88.926 207.643, 112.406 264.089, 157.034 262.083, 119.779 214.602, 84.382 "
fill = "blue" stroke = "black"/>
</g>
<g>
<polygon points = "942.126, 828.449 913.833, 873.979 928.061, 895.887 958.549, 869.456 "
fill = "blue" stroke = "black"/>
</g>
<g>
<polygon points = "66.026, 935.875 52.642, 928.455 33.648, 948.925 24.469, 999.145 45.413, 999.145 75.636, 968.376 "
fill = "blue" stroke = "black"/>
</g>
<g>
<polygon points = "434.861, 124.229 446.071, 105.025 423.451, 77.733 381.406, 71.452 389.215, 138.729 "
fill = "blue" stroke = "black"/>
</g>
<g>
<polygon points = "819.262, 12.062 796.868, 60.701 805.655, 72.063 821.007, 86.395 852.288, 93.432 859.989, 92.176 858.549, 75.219 "
fill = "blue" stroke = "black"/>
</g>
<g>
<polygon points = "736.506, 127.512 715.956, 97.823 710.396, 97.720 669.567, 146.017 660.012, 166.868 659.538, 200.351 721.949, 205.480 "
fill = "blue" stroke = "black"/>
</g>
<g>
<polygon points = "11.527, 804.633 59.376, 766.487 70.443, 741.143 65.681, 731.444 4.334, 686.679 4.334, 807.362 "
fill = "blue" stroke = "black"/>
</g>
<g>
<polygon points = "340.401, 35.778 340.531, 36.841 372.192, 59.209 416.751, 51.293 424.786, 20.235 414.193, 4.822 344.699, 4.822 "
fill = "blue" stroke = "black"/>
</g>
<g>
<polygon points = "286.056, 369.099 246.303, 386.810 195.839, 446.832 197.086, 448.347 250.219, 474.631 263.875, 474.078 294.823, 378.175 "
fill = "blue" stroke = "black"/>
</g>
<g>
<polygon points = "416.751, 51.293 423.451, 77.733 446.071, 105.025 459.608, 96.585 472.721, 62.427 433.199, 23.934 424.786, 20.235 "
fill = "blue" stroke = "black"/>
</g>
<g>
<polygon points = "950.365, 956.429 904.080, 983.142 898.791, 999.145 963.351, 999.145 "
fill = "blue" stroke = "black"/>
</g>
<g>
<polygon points = "565.786, 245.558 579.786, 247.903 619.637, 216.863 564.152, 196.393 "
fill = "blue" stroke = "black"/>
</g>
<g>
<polygon points = "349.878, 766.611 352.682, 783.986 394.757, 845.136 407.770, 832.272 403.264, 763.901 373.693, 744.671 "
fill = "blue" stroke = "black"/>
</g>
<g>
<polygon points = "50.896, 578.538 89.451, 602.610 103.783, 599.073 69.213, 550.722 57.134, 550.869 "
fill = "blue" stroke = "black"/>
</g>
<g>
<polygon points = "94.547, 96.357 4.334, 102.260 4.334, 212.696 44.241, 216.842 64.404, 208.929 94.948, 194.545 "
fill = "blue" stroke = "black"/>
</g>
<g>
<polygon points = "684.444, 367.896 704.593, 365.429 727.538, 347.895 690.812, 299.158 683.050, 293.197 656.014, 294.799 652.764, 301.257 "
fill = "blue" stroke = "black"/>
</g>
<g>
<polygon points = "785.784, 514.379 785.043, 510.351 693.993, 449.677 660.988, 452.574 662.069, 455.307 696.331, 514.430 785.305, 515.591 "
fill = "blue" stroke = "black"/>
</g>
<g>
<polygon points = "690.812, 299.158 727.538, 347.895 754.949, 347.973 765.587, 344.073 766.627, 329.303 766.033, 301.155 "
fill = "blue" stroke = "black"/>
</g>
<g>
<polygon points = "904.080, 983.142 877.803, 930.231 848.903, 930.095 848.156, 931.652 842.667, 948.764 852.405, 999.145 898.791, 999.145 "
fill = "blue" stroke = "black"/>
</g>
<g>
<polygon points = "66.664, 308.490 126.960, 292.638 69.418, 257.955 "
fill = "blue" stroke = "black"/>
</g>
<g>
<polygon points = "4.334, 102.260 94.547, 96.357 121.821, 76.951 126.609, 65.925 127.624, 50.173 113.448, 4.822 4.334, 4.822 "
fill = "blue" stroke = "black"/>
</g>
<g>
<polygon points = "985.934, 771.761 977.358, 773.853 942.107, 828.049 942.126, 828.449 958.549, 869.456 991.945, 896.209 998.749, 895.052 998.749, 772.598 "
fill = "blue" stroke = "black"/>
</g>
<g>
<polygon points = "947.005, 741.753 922.000, 672.894 903.750, 681.232 902.910, 685.256 "
fill = "blue" stroke = "black"/>
</g>
<g>
<polygon points = "166.405, 317.972 172.769, 323.619 202.844, 338.775 252.550, 327.272 254.512, 305.385 253.470, 260.890 "
fill = "blue" stroke = "black"/>
</g>
<g>
<polygon points = "536.229, 830.101 540.169, 829.438 544.330, 800.519 535.806, 763.997 519.649, 726.369 487.468, 709.067 486.438, 709.317 470.300, 733.816 509.822, 819.475 525.201, 828.770 "
fill = "blue" stroke = "black"/>
</g>
<g>
<polygon points = "883.759, 925.338 920.611, 917.302 894.696, 875.357 886.971, 874.814 "
fill = "blue" stroke = "black"/>
</g>
<g>
<polygon points = "798.386, 924.112 818.352, 898.883 792.359, 866.099 738.891, 935.985 "
fill = "blue" stroke = "black"/>
</g>
<g>
<polygon points = "740.451, 63.983 796.868, 60.701 819.262, 12.062 821.347, 4.822 732.067, 4.822 "
fill = "blue" stroke = "black"/>
</g>
<g>
<polygon points = "470.300, 733.816 461.830, 736.571 420.429, 826.624 509.822, 819.475 "
fill = "blue" stroke = "black"/>
</g>
<g>
<polygon points = "133.842, 256.547 130.954, 236.039 111.358, 196.205 94.948, 194.545 64.404, 208.929 131.539, 271.435 "
fill = "blue" stroke = "black"/>
</g>
<g>
<polygon points = "956.831, 638.325 955.997, 640.384 985.934, 771.761 998.749, 772.598 998.749, 619.581 "
fill = "blue" stroke = "black"/>
</g>
<g>
<polygon points = "166.535, 771.414 175.155, 776.703 218.123, 784.757 227.316, 776.424 210.075, 694.459 167.503, 703.702 "
fill = "blue" stroke = "black"/>
</g>
<g>
<polygon points = "585.511, 877.719 602.858, 876.216 628.441, 847.223 629.577, 840.595 565.807, 824.936 552.074, 832.323 "
fill = "blue" stroke = "black"/>
</g>
<g>
<polygon points = "232.332, 27.778 127.624, 50.173 126.609, 65.925 208.781, 88.926 214.602, 84.382 240.165, 48.884 "
fill = "blue" stroke = "black"/>
</g>
<g>
<polygon points = "640.300, 368.397 681.443, 370.963 684.444, 367.896 652.764, 301.257 634.718, 317.592 "
fill = "blue" stroke = "black"/>
</g>
<g>
<polygon points = "908.271, 563.863 969.144, 528.764 921.221, 475.361 894.918, 489.502 "
fill = "blue" stroke = "black"/>
</g>
<g>
<polygon points = "629.577, 840.595 628.441, 847.223 662.523, 882.529 673.849, 884.904 674.242, 883.870 643.666, 831.099 "
fill = "blue" stroke = "black"/>
</g>
<g>
<polygon points = "981.369, 537.770 898.381, 598.639 897.862, 599.647 956.831, 638.325 998.749, 619.581 998.749, 546.357 "
fill = "blue" stroke = "black"/>
</g>
<g>
<polygon points = "518.868, 387.432 502.109, 392.544 506.433, 444.834 556.405, 426.781 545.568, 394.118 "
fill = "blue" stroke = "black"/>
</g>
<g>
<polygon points = "377.758, 550.163 338.090, 538.823 313.217, 645.386 320.178, 650.463 371.372, 639.039 "
fill = "blue" stroke = "black"/>
</g>
<g>
<polygon points = "252.852, 238.180 270.326, 202.357 271.908, 184.711 171.658, 165.118 190.137, 231.295 208.123, 239.577 "
fill = "blue" stroke = "black"/>
</g>
<g>
<polygon points = "623.493, 637.128 621.329, 583.097 549.345, 568.071 544.429, 621.667 546.334, 639.065 548.191, 643.757 599.156, 668.730 "
fill = "blue" stroke = "black"/>
</g>
<g>
<polygon points = "175.155, 776.703 166.535, 771.414 141.953, 776.510 123.209, 835.001 160.549, 827.578 "
fill = "blue" stroke = "black"/>
</g>
<g>
<polygon points = "637.422, 520.095 549.097, 567.619 549.345, 568.071 621.329, 583.097 642.042, 566.590 648.207, 528.661 "
fill = "blue" stroke = "black"/>
</g>
<g>
<polygon points = "785.305, 515.591 696.331, 514.430 653.803, 526.498 648.207, 528.661 642.042, 566.590 695.490, 599.578 785.425, 518.505 "
fill = "blue" stroke = "black"/>
</g>
<g>
<polygon points = "594.075, 104.913 569.991, 100.807 551.370, 120.329 568.762, 172.471 614.592, 184.707 599.975, 115.764 "
fill = "blue" stroke = "black"/>
</g>
<g>
<polygon points = "862.324, 49.143 858.549, 75.219 859.989, 92.176 867.887, 94.534 902.944, 63.404 899.758, 38.805 "
fill = "blue" stroke = "black"/>
</g>
<g>
<polygon points = "127.624, 50.173 232.332, 27.778 236.240, 4.822 113.448, 4.822 "
fill = "blue" stroke = "black"/>
</g>
<g>
<polygon points = "402.269, 449.037 436.677, 480.546 455.634, 477.702 458.392, 402.183 422.867, 399.501 401.731, 427.810 "
fill = "blue" stroke = "black"/>
</g>
<g>
<polygon points = "47.831, 345.301 66.664, 308.490 69.418, 257.955 44.241, 216.842 4.334, 212.696 4.334, 345.597 "
fill = "blue" stroke = "black"/>
</g>
<g>
<polygon points = "375.866, 724.477 373.693, 744.671 403.264, 763.901 458.152, 736.505 404.630, 712.870 "
fill = "blue" stroke = "black"/>
</g>
<g>
<polygon points = "709.582, 266.491 683.050, 293.197 690.812, 299.158 766.033, 301.155 768.523, 291.222 "
fill = "blue" stroke = "black"/>
</g>
<g>
<polygon points = "377.758, 550.163 371.372, 639.039 377.230, 641.397 446.511, 617.785 449.007, 600.602 448.420, 585.749 400.711, 547.178 "
fill = "blue" stroke = "black"/>
</g>
<g>
<polygon points = "389.042, 664.688 364.394, 711.547 375.866, 724.477 404.630, 712.870 409.349, 680.200 "
fill = "blue" stroke = "black"/>
</g>
<g>
<polygon points = "691.215, 632.723 695.549, 653.934 723.156, 675.631 769.505, 671.064 754.215, 631.427 693.060, 628.893 "
fill = "blue" stroke = "black"/>
</g>
<g>
<polygon points = "726.356, 210.063 709.582, 266.491 768.523, 291.222 788.073, 263.103 754.626, 218.086 "
fill = "blue" stroke = "black"/>
</g>
<g>
<polygon points = "281.908, 831.939 300.446, 828.638 302.615, 815.193 289.359, 762.038 277.654, 761.991 235.400, 776.294 "
fill = "blue" stroke = "black"/>
</g>
<g>
<polygon points = "372.192, 59.209 340.531, 36.841 325.087, 79.017 340.236, 150.422 364.899, 155.260 389.215, 138.729 381.406, 71.452 "
fill = "blue" stroke = "black"/>
</g>
<g>
<polygon points = "920.611, 917.302 925.728, 916.686 928.061, 895.887 913.833, 873.979 894.696, 875.357 "
fill = "blue" stroke = "black"/>
</g>
<g>
<polygon points = "622.258, 503.343 637.422, 520.095 648.207, 528.661 653.803, 526.498 662.069, 455.307 660.988, 452.574 641.636, 442.130 639.537, 444.223 "
fill = "blue" stroke = "black"/>
</g>
<g>
<polygon points = "47.831, 345.301 70.529, 355.788 132.702, 295.448 131.480, 294.058 126.960, 292.638 66.664, 308.490 "
fill = "blue" stroke = "black"/>
</g>
<g>
<polygon points = "52.642, 928.455 50.149, 894.384 4.334, 880.272 4.334, 920.434 33.648, 948.925 "
fill = "blue" stroke = "black"/>
</g>
<g>
<polygon points = "708.643, 740.120 723.156, 675.631 695.549, 653.934 640.443, 725.167 "
fill = "blue" stroke = "black"/>
</g>
<g>
<polygon points = "21.290, 616.109 69.728, 628.357 89.451, 602.610 50.896, 578.538 "
fill = "blue" stroke = "black"/>
</g>
<g>
<polygon points = "157.965, 307.952 164.925, 317.380 166.405, 317.972 253.470, 260.890 254.908, 256.303 252.852, 238.180 208.123, 239.577 168.120, 284.989 "
fill = "blue" stroke = "black"/>
</g>
<g>
<polygon points = "672.789, 405.316 681.443, 370.963 640.300, 368.397 627.993, 384.382 624.281, 399.622 627.694, 405.793 642.213, 423.118 "
fill = "blue" stroke = "black"/>
</g>
<g>
<polygon points = "585.225, 906.474 585.511, 877.719 552.074, 832.323 540.169, 829.438 536.229, 830.101 524.151, 905.008 "
fill = "blue" stroke = "black"/>
</g>
<g>
<polygon points = "433.199, 23.934 472.721, 62.427 541.962, 11.277 542.959, 4.822 492.925, 4.822 "
fill = "blue" stroke = "black"/>
</g>
<g>
<polygon points = "527.851, 238.051 510.273, 268.799 543.126, 301.767 553.890, 247.947 "
fill = "blue" stroke = "black"/>
</g>
<g>
<polygon points = "411.562, 306.979 366.040, 268.117 355.754, 268.166 338.758, 290.062 375.484, 342.327 "
fill = "blue" stroke = "black"/>
</g>
<g>
<polygon points = "842.667, 948.764 848.156, 931.652 792.761, 949.403 766.727, 990.343 768.084, 993.480 "
fill = "blue" stroke = "black"/>
</g>
<g>
<polygon points = "366.753, 883.169 356.572, 881.167 217.436, 930.706 212.624, 938.755 227.761, 999.145 283.209, 999.145 363.818, 939.714 369.021, 932.966 "
fill = "blue" stroke = "black"/>
</g>
<g>
<polygon points = "302.615, 815.193 352.682, 783.986 349.878, 766.611 304.489, 750.345 289.359, 762.038 "
fill = "blue" stroke = "black"/>
</g>
<g>
<polygon points = "425.851, 964.029 408.780, 967.638 408.904, 999.145 474.366, 999.145 "
fill = "blue" stroke = "black"/>
</g>
<g>
<polygon points = "785.675, 477.425 788.611, 470.272 772.781, 348.602 765.587, 344.073 754.949, 347.973 740.317, 399.515 748.179, 431.517 "
fill = "blue" stroke = "black"/>
</g>
<g>
<polygon points = "846.222, 637.850 805.521, 655.856 799.212, 674.448 855.025, 677.107 869.461, 667.054 869.230, 641.811 "
fill = "blue" stroke = "black"/>
</g>
<g>
<polygon points = "969.711, 362.483 992.027, 429.682 998.749, 430.143 998.749, 348.931 "
fill = "blue" stroke = "black"/>
</g>
<g>
<polygon points = "894.918, 489.502 921.221, 475.361 929.460, 452.587 928.381, 450.451 830.191, 419.313 806.055, 446.637 788.611, 470.272 785.675, 477.425 785.043, 510.351 785.784, 514.379 "
fill = "blue" stroke = "black"/>
</g>
<g>
<polygon points = "326.778, 692.772 320.178, 650.463 313.217, 645.386 239.858, 634.997 224.686, 679.649 245.654, 696.646 308.293, 719.885 "
fill = "blue" stroke = "black"/>
</g>
<g>
<polygon points = "378.770, 356.504 374.388, 406.120 375.567, 406.996 407.216, 369.922 "
fill = "blue" stroke = "black"/>
</g>
<g>
<polygon points = "487.805, 937.051 480.666, 932.275 447.129, 947.132 425.851, 964.029 474.366, 999.145 503.792, 999.145 "
fill = "blue" stroke = "black"/>
</g>
<g>
<polygon points = "416.751, 51.293 372.192, 59.209 381.406, 71.452 423.451, 77.733 "
fill = "blue" stroke = "black"/>
</g>
<g>
<polygon points = "801.538, 352.328 806.055, 446.637 830.191, 419.313 840.036, 402.877 830.925, 359.309 815.743, 352.178 "
fill = "blue" stroke = "black"/>
</g>
<g>
<polygon points = "576.226, 436.207 627.694, 405.793 624.281, 399.622 587.848, 392.311 "
fill = "blue" stroke = "black"/>
</g>
<g>
<polygon points = "507.706, 208.432 507.875, 206.474 499.906, 181.851 439.909, 197.715 431.237, 207.725 449.184, 246.049 460.842, 243.907 "
fill = "blue" stroke = "black"/>
</g>
<g>
<polygon points = "545.568, 394.118 556.405, 426.781 570.785, 437.526 575.527, 437.454 576.226, 436.207 587.848, 392.311 575.820, 381.432 "
fill = "blue" stroke = "black"/>
</g>
<g>
<polygon points = "375.484, 342.327 338.758, 290.062 325.535, 296.080 319.479, 309.814 317.836, 315.548 360.498, 353.529 373.404, 349.592 "
fill = "blue" stroke = "black"/>
</g>
<g>
<polygon points = "349.878, 766.611 373.693, 744.671 375.866, 724.477 364.394, 711.547 326.778, 692.772 308.293, 719.885 304.489, 750.345 "
fill = "blue" stroke = "black"/>
</g>
<g>
<polygon points = "392.950, 195.669 375.062, 176.428 346.355, 251.695 355.754, 268.166 366.040, 268.117 390.378, 246.998 "
fill = "blue" stroke = "black"/>
</g>
<g>
<polygon points = "673.849, 884.904 680.052, 917.092 696.458, 935.394 713.988, 938.190 739.102, 874.575 693.206, 859.854 674.242, 883.870 "
fill = "blue" stroke = "black"/>
</g>
<g>
<polygon points = "126.609, 65.925 121.821, 76.951 167.512, 146.048 207.643, 112.406 208.781, 88.926 "
fill = "blue" stroke = "black"/>
</g>
<g>
<polygon points = "796.868, 60.701 740.451, 63.983 715.956, 97.823 736.506, 127.512 762.668, 132.670 805.655, 72.063 "
fill = "blue" stroke = "black"/>
</g>
<g>
<polygon points = "977.358, 773.853 956.561, 765.257 908.301, 755.684 871.872, 800.114 871.605, 832.561 942.107, 828.049 "
fill = "blue" stroke = "black"/>
</g>
<g>
<polygon points = "819.262, 12.062 858.549, 75.219 862.324, 49.143 852.071, 4.822 821.347, 4.822 "
fill = "blue" stroke = "black"/>
</g>
<g>
<polygon points = "202.844, 338.775 172.769, 323.619 172.904, 435.209 179.807, 437.325 207.381, 360.787 "
fill = "blue" stroke = "black"/>
</g>
<g>
<polygon points = "235.400, 776.294 277.654, 761.991 245.654, 696.646 224.686, 679.649 210.075, 694.459 227.316, 776.424 "
fill = "blue" stroke = "black"/>
</g>
<g>
<polygon points = "171.658, 165.118 168.945, 163.703 130.543, 190.148 172.560, 232.640 190.137, 231.295 "
fill = "blue" stroke = "black"/>
</g>
<g>
<polygon points = "100.343, 467.996 52.911, 545.685 57.134, 550.869 69.213, 550.722 81.735, 547.673 102.421, 534.404 118.248, 517.521 "
fill = "blue" stroke = "black"/>
</g>
<g>
<polygon points = "121.821, 76.951 94.547, 96.357 94.948, 194.545 111.358, 196.205 130.543, 190.148 168.945, 163.703 167.512, 146.048 "
fill = "blue" stroke = "black"/>
</g>
<g>
<polygon points = "489.030, 385.519 458.392, 402.183 455.634, 477.702 460.180, 478.353 503.144, 458.697 506.433, 444.834 502.109, 392.544 "
fill = "blue" stroke = "black"/>
</g>
<g>
<polygon points = "715.160, 835.505 743.516, 797.696 738.356, 755.690 726.602, 754.424 691.848, 811.955 701.723, 836.887 "
fill = "blue" stroke = "black"/>
</g>
<g>
<polygon points = "680.316, 973.073 681.962, 962.588 603.892, 981.464 606.858, 999.145 641.855, 999.145 "
fill = "blue" stroke = "black"/>
</g>
<g>
<polygon points = "100.642, 872.013 109.766, 871.581 119.352, 838.067 59.376, 766.487 11.527, 804.633 "
fill = "blue" stroke = "black"/>
</g>
<g>
<polygon points = "815.743, 352.178 830.925, 359.309 881.394, 336.390 892.230, 320.097 883.464, 312.021 823.811, 317.399 "
fill = "blue" stroke = "black"/>
</g>
<g>
<polygon points = "805.521, 655.856 810.438, 576.484 809.200, 554.233 787.900, 524.428 754.215, 631.427 769.505, 671.064 789.771, 682.191 799.212, 674.448 "
fill = "blue" stroke = "black"/>
</g>
<g>
<polygon points = "285.232, 365.327 252.550, 327.272 202.844, 338.775 207.381, 360.787 246.303, 386.810 286.056, 369.099 "
fill = "blue" stroke = "black"/>
</g>
<g>
<polygon points = "232.332, 27.778 240.165, 48.884 242.057, 49.999 340.401, 35.778 344.699, 4.822 236.240, 4.822 "
fill = "blue" stroke = "black"/>
</g>
<g>
<polygon points = "130.543, 190.148 111.358, 196.205 130.954, 236.039 166.557, 238.553 172.560, 232.640 "
fill = "blue" stroke = "black"/>
</g>
<g>
<polygon points = "363.818, 939.714 283.209, 999.145 363.137, 999.145 "
fill = "blue" stroke = "black"/>
</g>
<g>
<polygon points = "377.230, 641.397 389.042, 664.688 409.349, 680.200 455.882, 666.315 452.334, 631.129 446.511, 617.785 "
fill = "blue" stroke = "black"/>
</g>
<g>
<polygon points = "588.389, 943.495 585.225, 906.474 524.151, 905.008 518.017, 922.429 586.990, 946.223 "
fill = "blue" stroke = "black"/>
</g>
<g>
<polygon points = "623.493, 637.128 599.156, 668.730 610.239, 702.710 614.427, 712.324 633.184, 726.477 640.443, 725.167 695.549, 653.934 691.215, 632.723 "
fill = "blue" stroke = "black"/>
</g>
<g>
<polygon points = "570.785, 437.526 536.441, 479.552 555.316, 510.592 585.181, 498.580 589.638, 449.997 575.527, 437.454 "
fill = "blue" stroke = "black"/>
</g>
<g>
<polygon points = "239.284, 571.857 303.494, 492.860 301.399, 490.709 263.875, 474.078 250.219, 474.631 236.293, 514.327 "
fill = "blue" stroke = "black"/>
</g>
<g>
<polygon points = "459.608, 96.585 446.071, 105.025 434.861, 124.229 443.979, 137.553 499.933, 179.803 540.858, 124.554 "
fill = "blue" stroke = "black"/>
</g>
<g>
<polygon points = "785.675, 477.425 748.179, 431.517 704.897, 414.468 697.570, 416.519 693.993, 449.677 785.043, 510.351 "
fill = "blue" stroke = "black"/>
</g>
<g>
<polygon points = "867.887, 94.534 859.989, 92.176 852.288, 93.432 835.446, 130.744 860.868, 189.402 875.558, 199.778 917.967, 186.630 920.516, 168.506 "
fill = "blue" stroke = "black"/>
</g>
<g>
<polygon points = "669.567, 146.017 610.163, 98.847 594.075, 104.913 599.975, 115.764 660.012, 166.868 "
fill = "blue" stroke = "black"/>
</g>
<g>
<polygon points = "799.456, 163.721 791.555, 144.639 789.600, 142.384 762.668, 132.670 736.506, 127.512 721.949, 205.480 726.356, 210.063 754.626, 218.086 775.939, 200.692 "
fill = "blue" stroke = "black"/>
</g>
<g>
<polygon points = "920.516, 168.506 983.952, 85.852 902.944, 63.404 867.887, 94.534 "
fill = "blue" stroke = "black"/>
</g>
<g>
<polygon points = "81.735, 547.673 125.053, 589.705 128.561, 588.562 102.421, 534.404 "
fill = "blue" stroke = "black"/>
</g>
<g>
<polygon points = "439.909, 197.715 443.979, 137.553 434.861, 124.229 389.215, 138.729 364.899, 155.260 375.062, 176.428 392.950, 195.669 431.237, 207.725 "
fill = "blue" stroke = "black"/>
</g>
<g>
<polygon points = "680.316, 973.073 641.855, 999.145 682.920, 999.145 "
fill = "blue" stroke = "black"/>
</g>
<g>
<polygon points = "106.372, 958.796 119.015, 952.673 158.977, 922.807 125.706, 892.524 76.865, 933.829 "
fill = "blue" stroke = "black"/>
</g>
<g>
<polygon points = "766.627, 329.303 765.587, 344.073 772.781, 348.602 801.538, 352.328 815.743, 352.178 823.811, 317.399 821.065, 306.104 "
fill = "blue" stroke = "black"/>
</g>
<g>
<polygon points = "50.149, 894.384 100.642, 872.013 11.527, 804.633 4.334, 807.362 4.334, 880.272 "
fill = "blue" stroke = "black"/>
</g>
<g>
<polygon points = "974.274, 954.708 955.517, 946.994 950.365, 956.429 963.351, 999.145 998.710, 999.145 "
fill = "blue" stroke = "black"/>
</g>
<g>
<polygon points = "904.080, 983.142 950.365, 956.429 955.517, 946.994 954.532, 936.548 925.728, 916.686 920.611, 917.302 883.759, 925.338 877.803, 930.231 "
fill = "blue" stroke = "black"/>
</g>
<g>
<polygon points = "21.290, 616.109 50.896, 578.538 57.134, 550.869 52.911, 545.685 21.529, 523.533 4.334, 608.260 4.334, 623.775 "
fill = "blue" stroke = "black"/>
</g>
<g>
<polygon points = "642.042, 566.590 621.329, 583.097 623.493, 637.128 691.215, 632.723 693.060, 628.893 695.490, 599.578 "
fill = "blue" stroke = "black"/>
</g>
<g>
<polygon points = "842.667, 948.764 768.084, 993.480 768.896, 999.145 852.405, 999.145 "
fill = "blue" stroke = "black"/>
</g>
<g>
<polygon points = "518.868, 387.432 545.568, 394.118 575.820, 381.432 581.406, 332.981 568.503, 324.260 549.141, 320.830 "
fill = "blue" stroke = "black"/>
</g>
<g>
<polygon points = "186.233, 593.311 227.283, 609.265 236.261, 595.421 239.284, 571.857 236.293, 514.327 183.839, 537.317 174.781, 582.631 "
fill = "blue" stroke = "black"/>
</g>
<g>
<polygon points = "375.062, 176.428 364.899, 155.260 340.236, 150.422 273.901, 181.402 271.908, 184.711 270.326, 202.357 346.355, 251.695 "
fill = "blue" stroke = "black"/>
</g>
<g>
<polygon points = "83.905, 450.336 98.375, 455.193 149.685, 432.830 126.667, 368.572 71.094, 356.374 "
fill = "blue" stroke = "black"/>
</g>
<g>
<polygon points = "130.954, 236.039 133.842, 256.547 163.507, 246.240 166.557, 238.553 "
fill = "blue" stroke = "black"/>
</g>
<g>
<polygon points = "977.598, 276.122 963.990, 298.315 998.749, 315.925 998.749, 269.992 "
fill = "blue" stroke = "black"/>
</g>
<g>
<polygon points = "640.300, 368.397 634.718, 317.592 586.862, 332.714 627.993, 384.382 "
fill = "blue" stroke = "black"/>
</g>
<g>
<polygon points = "317.836, 315.548 319.479, 309.814 254.512, 305.385 252.550, 327.272 285.232, 365.327 "
fill = "blue" stroke = "black"/>
</g>
<g>
<polygon points = "610.239, 702.710 492.619, 704.519 487.468, 709.067 519.649, 726.369 559.116, 732.003 574.852, 732.560 614.427, 712.324 "
fill = "blue" stroke = "black"/>
</g>
<g>
<polygon points = "544.330, 800.519 574.852, 732.560 559.116, 732.003 535.806, 763.997 "
fill = "blue" stroke = "black"/>
</g>
<g>
<polygon points = "646.865, 83.026 705.129, 95.195 685.554, 48.976 652.884, 18.977 "
fill = "blue" stroke = "black"/>
</g>
<g>
<polygon points = "466.729, 329.217 458.082, 326.625 417.240, 374.233 422.867, 399.501 458.392, 402.183 489.030, 385.519 "
fill = "blue" stroke = "black"/>
</g>
<g>
<polygon points = "958.291, 202.631 977.598, 276.122 998.749, 269.992 998.749, 205.877 "
fill = "blue" stroke = "black"/>
</g>
<g>
<polygon points = "944.461, 353.616 925.106, 319.903 913.429, 316.284 892.230, 320.097 881.394, 336.390 889.889, 398.121 916.434, 419.027 "
fill = "blue" stroke = "black"/>
</g>
<g>
<polygon points = "569.991, 100.807 541.962, 11.277 472.721, 62.427 459.608, 96.585 540.858, 124.554 551.370, 120.329 "
fill = "blue" stroke = "black"/>
</g>
<g>
<polygon points = "898.381, 598.639 908.271, 563.863 894.918, 489.502 785.784, 514.379 785.305, 515.591 785.425, 518.505 787.900, 524.428 809.200, 554.233 890.226, 600.155 897.862, 599.647 "
fill = "blue" stroke = "black"/>
</g>
<g>
<polygon points = "281.908, 831.939 235.400, 776.294 227.316, 776.424 218.123, 784.757 211.670, 841.501 223.812, 870.841 "
fill = "blue" stroke = "black"/>
</g>
<g>
<polygon points = "920.131, 196.961 913.429, 316.284 925.106, 319.903 962.721, 298.671 "
fill = "blue" stroke = "black"/>
</g>
<g>
<polygon points = "681.962, 962.588 696.458, 935.394 680.052, 917.092 588.389, 943.495 586.990, 946.223 586.813, 948.346 603.892, 981.464 "
fill = "blue" stroke = "black"/>
</g>
<g>
<polygon points = "536.441, 479.552 570.785, 437.526 556.405, 426.781 506.433, 444.834 503.144, 458.697 "
fill = "blue" stroke = "black"/>
</g>
<g>
<polygon points = "991.945, 896.209 954.532, 936.548 955.517, 946.994 974.274, 954.708 998.749, 955.722 998.749, 895.052 "
fill = "blue" stroke = "black"/>
</g>
<g>
<polygon points = "83.905, 450.336 71.094, 356.374 70.529, 355.788 47.831, 345.301 4.334, 345.597 4.334, 459.960 "
fill = "blue" stroke = "black"/>
</g>
<g>
<polygon points = "317.836, 315.548 285.232, 365.327 286.056, 369.099 294.823, 378.175 313.334, 383.586 360.498, 353.529 "
fill = "blue" stroke = "black"/>
</g>
<g>
<polygon points = "375.484, 342.327 373.404, 349.592 378.770, 356.504 407.216, 369.922 417.240, 374.233 458.082, 326.625 435.745, 305.454 411.562, 306.979 "
fill = "blue" stroke = "black"/>
</g>
<g>
<polygon points = "726.602, 754.424 708.643, 740.120 640.443, 725.167 633.184, 726.477 627.431, 780.073 645.872, 799.112 691.848, 811.955 "
fill = "blue" stroke = "black"/>
</g>
<g>
<polygon points = "503.144, 458.697 460.180, 478.353 503.495, 552.348 540.022, 554.814 555.316, 510.592 536.441, 479.552 "
fill = "blue" stroke = "black"/>
</g>
<g>
<polygon points = "21.529, 523.533 4.334, 505.673 4.334, 608.260 "
fill = "blue" stroke = "black"/>
</g>
<g>
<polygon points = "124.352, 635.573 151.416, 585.454 128.561, 588.562 125.053, 589.705 110.578, 599.346 110.594, 617.727 "
fill = "blue" stroke = "black"/>
</g>
<g>
<polygon points = "892.230, 320.097 913.429, 316.284 920.131, 196.961 919.617, 188.210 917.967, 186.630 875.558, 199.778 859.466, 219.402 839.040, 255.557 883.464, 312.021 "
fill = "blue" stroke = "black"/>
</g>
<g>
<polygon points = "466.729, 329.217 489.030, 385.519 502.109, 392.544 518.868, 387.432 549.141, 320.830 546.548, 318.939 483.628, 319.932 "
fill = "blue" stroke = "black"/>
</g>
<g>
<polygon points = "958.291, 202.631 919.617, 188.210 920.131, 196.961 962.721, 298.671 963.990, 298.315 977.598, 276.122 "
fill = "blue" stroke = "black"/>
</g>
<g>
<polygon points = "89.143, 662.027 135.032, 663.402 136.826, 657.645 124.352, 635.573 110.594, 617.727 87.034, 654.293 88.314, 660.630 "
fill = "blue" stroke = "black"/>
</g>
<g>
<polygon points = "439.909, 197.715 499.906, 181.851 499.933, 179.803 443.979, 137.553 "
fill = "blue" stroke = "black"/>
</g>
</svg>
