<svg xmlns = "http://www.w3.org/2000/svg" width = "1000" height = "1000">
<g>
<polygon points = "473.278, 933.221 490.342, 895.528 883.167, 1206.049 1347.823, 2000.000 429.274, 2000.000 "
fill = "blue" stroke = "black"/>
</g>
<g>
<polygon points = "774.220, 972.221 760.322, 951.715 703.420, 645.456 864.867, 735.156 "
fill = "blue" stroke = "black"/>
</g>
<g>
<polygon points = "543.977, 410.087 471.205, 534.647 412.748, 479.007 454.576, 340.944 537.815, 363.272 "
fill = "blue" stroke = "black"/>
</g>
<g>
<polygon points = "864.867, 735.156 703.420, 645.456 692.806, 632.024 755.978, 518.903 824.174, 440.586 1298.773, 382.766 1999.695, 495.230 1999.695, 973.601 "
fill = "blue" stroke = "black"/>
</g>
<g>
<polygon points = "832.568, 114.614 832.358, 115.087 700.175, 302.388 647.273, 269.021 612.614, 197.113 "
fill = "blue" stroke = "black"/>
</g>
<g>
<polygon points = "1347.823, 2000.000 883.167, 1206.049 774.220, 972.221 864.867, 735.156 1999.695, 973.601 1999.695, 2000.000 "
fill = "blue" stroke = "black"/>
</g>
<g>
<polygon points = "357.368, 222.042 381.089, 174.528 560.998, 130.628 612.614, 197.113 647.273, 269.021 537.815, 363.272 454.576, 340.944 "
fill = "blue" stroke = "black"/>
</g>
<g>
<polygon points = "-206.086, 424.247 109.351, 594.932 162.309, 668.747 156.720, 710.508 72.176, 791.939 -1000.000, 732.128 -1000.000, 411.278 "
fill = "blue" stroke = "black"/>
</g>
<g>
<polygon points = "239.662, 971.249 275.977, 842.284 486.257, 761.483 500.980, 820.232 490.342, 895.528 473.278, 933.221 "
fill = "blue" stroke = "black"/>
</g>
<g>
<polygon points = "132.350, 1135.612 72.176, 791.939 156.720, 710.508 275.977, 842.284 239.662, 971.249 "
fill = "blue" stroke = "black"/>
</g>
<g>
<polygon points = "716.282, -422.118 702.770, -223.303 560.998, 130.628 381.089, 174.528 45.043, -453.711 -145.936, -996.796 707.703, -996.796 "
fill = "blue" stroke = "black"/>
</g>
<g>
<polygon points = "72.176, 791.939 132.350, 1135.612 -122.817, 2000.000 -1000.000, 2000.000 -1000.000, 732.128 "
fill = "blue" stroke = "black"/>
</g>
<g>
<polygon points = "132.350, 1135.612 239.662, 971.249 473.278, 933.221 429.274, 2000.000 -122.817, 2000.000 "
fill = "blue" stroke = "black"/>
</g>
<g>
<polygon points = "755.978, 518.903 692.806, 632.024 522.922, 674.729 471.205, 534.647 543.977, 410.087 "
fill = "blue" stroke = "black"/>
</g>
<g>
<polygon points = "647.273, 269.021 700.175, 302.388 805.528, 415.798 824.174, 440.586 755.978, 518.903 543.977, 410.087 537.815, 363.272 "
fill = "blue" stroke = "black"/>
</g>
<g>
<polygon points = "500.980, 820.232 486.257, 761.483 504.454, 694.908 522.922, 674.729 692.806, 632.024 703.420, 645.456 760.322, 951.715 "
fill = "blue" stroke = "black"/>
</g>
<g>
<polygon points = "522.922, 674.729 504.454, 694.908 285.386, 629.818 294.215, 538.497 385.540, 472.182 412.748, 479.007 471.205, 534.647 "
fill = "blue" stroke = "black"/>
</g>
<g>
<polygon points = "500.980, 820.232 760.322, 951.715 774.220, 972.221 883.167, 1206.049 490.342, 895.528 "
fill = "blue" stroke = "black"/>
</g>
<g>
<polygon points = "805.528, 415.798 700.175, 302.388 832.358, 115.087 "
fill = "blue" stroke = "black"/>
</g>
<g>
<polygon points = "223.743, 457.272 239.518, 327.960 385.540, 472.182 294.215, 538.497 "
fill = "blue" stroke = "black"/>
</g>
<g>
<polygon points = "836.532, 109.800 832.568, 114.614 612.614, 197.113 560.998, 130.628 702.770, -223.303 "
fill = "blue" stroke = "black"/>
</g>
<g>
<polygon points = "1070.571, 218.775 836.532, 109.800 702.770, -223.303 716.282, -422.118 "
fill = "blue" stroke = "black"/>
</g>
<g>
<polygon points = "133.500, 290.356 234.755, 311.450 239.518, 327.960 223.743, 457.272 109.351, 594.932 -206.086, 424.247 "
fill = "blue" stroke = "black"/>
</g>
<g>
<polygon points = "223.743, 457.272 294.215, 538.497 285.386, 629.818 162.309, 668.747 109.351, 594.932 "
fill = "blue" stroke = "black"/>
</g>
<g>
<polygon points = "45.043, -453.711 381.089, 174.528 357.368, 222.042 234.755, 311.450 133.500, 290.356 "
fill = "blue" stroke = "black"/>
</g>
<g>
<polygon points = "1070.571, 218.775 1298.773, 382.766 824.174, 440.586 805.528, 415.798 832.358, 115.087 832.568, 114.614 836.532, 109.800 "
fill = "blue" stroke = "black"/>
</g>
<g>
<polygon points = "1298.773, 382.766 1070.571, 218.775 716.282, -422.118 707.703, -996.796 1999.695, -996.796 1999.695, 495.230 "
fill = "blue" stroke = "black"/>
</g>
<g>
<polygon points = "239.518, 327.960 234.755, 311.450 357.368, 222.042 454.576, 340.944 412.748, 479.007 385.540, 472.182 "
fill = "blue" stroke = "black"/>
</g>
<g>
<polygon points = "285.386, 629.818 504.454, 694.908 486.257, 761.483 275.977, 842.284 156.720, 710.508 162.309, 668.747 "
fill = "blue" stroke = "black"/>
</g>
<g>
<polygon points = "45.043, -453.711 133.500, 290.356 -206.086, 424.247 -1000.000, 411.278 -1000.000, -996.796 -145.936, -996.796 "
fill = "blue" stroke = "black"/>
</g>
</svg>
