<svg xmlns = "http://www.w3.org/2000/svg" width = "1000" height = "1000">
<g>
<polygon points = "610.542, 994.359 586.356, 947.459 588.997, 946.916 504.579, 1002.200 500.249, 1017.881 437.559, 1999.145 606.296, 1999.145 "
fill = "blue" stroke = "black"/>
</g>
<g>
<polygon points = "568.762, 172.471 562.612, 194.272 588.115, 229.398 635.749, 210.456 614.592, 184.707 "
fill = "blue" stroke = "black"/>
</g>
<g>
<polygon points = "957.614, 638.838 897.862, 599.647 876.726, 601.055 869.101, 627.729 869.461, 667.054 910.403, 683.984 "
fill = "blue" stroke = "black"/>
</g>
<g>
<polygon points = "140.556, 235.087 142.495, 293.998 153.372, 301.731 146.191, 309.883 158.993, 311.394 155.106, 314.718 140.711, 316.104 217.244, 229.223 "
fill = "blue" stroke = "black"/>
</g>
<g>
<polygon points = "560.025, 318.726 501.514, 260.009 483.628, 319.932 "
fill = "blue" stroke = "black"/>
</g>
<g>
<polygon points = "109.154, 960.043 107.893, 960.084 75.636, 968.376 19.682, 1025.341 -466.321, 1999.145 100.111, 1999.145 "
fill = "blue" stroke = "black"/>
</g>
<g>
<polygon points = "148.651, 922.671 149.928, 923.171 144.889, 918.619 216.458, 939.895 226.506, 845.541 139.691, 821.897 97.488, 855.449 "
fill = "blue" stroke = "black"/>
</g>
<g>
<polygon points = ""
fill = "blue" stroke = "black"/>
</g>
<g>
<polygon points = "408.717, 951.626 414.750, 972.844 363.946, 928.540 351.679, 1999.145 412.843, 1999.145 "
fill = "blue" stroke = "black"/>
</g>
<g>
<polygon points = "588.429, 387.222 601.637, 390.865 574.099, 440.002 577.063, 451.452 643.069, 443.814 641.532, 445.551 642.213, 423.118 619.258, 395.727 642.024, 402.007 573.778, 399.151 "
fill = "blue" stroke = "black"/>
</g>
<g>
<polygon points = "674.242, 883.870 704.936, 845.001 691.848, 811.955 625.984, 793.556 623.651, 796.558 "
fill = "blue" stroke = "black"/>
</g>
<g>
<polygon points = "82.444, 631.572 21.290, 616.109 -50.268, 648.458 -40.296, 654.112 88.314, 660.630 "
fill = "blue" stroke = "black"/>
</g>
<g>
<polygon points = "859.466, 219.402 775.939, 200.692 754.626, 218.086 798.779, 277.512 833.269, 265.772 833.730, 264.955 779.754, 267.672 775.507, 263.365 820.984, 262.416 839.040, 255.557 "
fill = "blue" stroke = "black"/>
</g>
<g>
<polygon points = "872.248, 754.381 885.454, 751.152 911.243, 653.801 910.403, 683.984 869.461, 667.054 855.025, 677.107 864.779, 751.955 "
fill = "blue" stroke = "black"/>
</g>
<g>
<polygon points = "947.469, -748.430 898.344, 62.130 887.715, 59.184 882.789, -92.203 902.944, 63.404 983.952, 85.852 1998.749, -556.743 1998.749, -995.178 977.923, -995.178 "
fill = "blue" stroke = "black"/>
</g>
<g>
<polygon points = "385.712, 869.099 484.850, 913.703 484.192, 914.762 451.706, 912.900 528.387, 825.123 555.147, 846.869 509.822, 819.475 420.429, 826.624 397.961, 836.649 "
fill = "blue" stroke = "black"/>
</g>
<g>
<polygon points = "297.601, 142.059 285.418, 162.284 204.014, 99.086 228.925, 94.565 155.079, 156.470 252.758, 207.421 276.391, 187.586 238.254, 92.872 241.577, 92.269 299.615, 148.577 "
fill = "blue" stroke = "black"/>
</g>
<g>
<polygon points = "983.952, 85.852 910.776, 181.197 910.577, 184.207 988.415, 222.496 1998.749, 207.549 1998.749, -556.743 "
fill = "blue" stroke = "black"/>
</g>
<g>
<polygon points = "417.240, 374.233 380.153, 358.284 366.232, 475.356 422.867, 399.501 "
fill = "blue" stroke = "black"/>
</g>
<g>
<polygon points = "1003.369, 671.237 1050.404, 686.417 799.212, 674.448 789.771, 682.191 789.365, 761.187 766.030, 736.311 768.589, 699.561 748.036, 716.416 748.702, 717.840 787.390, 759.081 951.311, 703.229 "
fill = "blue" stroke = "black"/>
</g>
<g>
<polygon points = ""
fill = "blue" stroke = "black"/>
</g>
<g>
<polygon points = "52.221, 960.142 32.462, 902.220 -93.570, 844.509 -995.666, 864.315 -995.666, 1999.145 -466.321, 1999.145 "
fill = "blue" stroke = "black"/>
</g>
<g>
<polygon points = "280.885, 768.588 304.489, 750.345 312.565, 685.678 300.997, 660.515 247.225, 650.071 233.136, 671.084 "
fill = "blue" stroke = "black"/>
</g>
<g>
<polygon points = "821.142, 347.933 829.162, 350.879 880.718, 331.476 890.118, 320.477 839.040, 255.557 820.984, 262.416 "
fill = "blue" stroke = "black"/>
</g>
<g>
<polygon points = "189.294, 585.304 211.871, 591.197 260.567, 478.861 261.841, 480.381 195.306, 447.466 175.103, 445.601 185.152, 442.443 196.092, 447.855 177.168, 502.971 193.773, 588.458 "
fill = "blue" stroke = "black"/>
</g>
<g>
<polygon points = "460.180, 478.353 455.634, 477.702 436.677, 480.546 400.711, 547.178 361.129, 515.177 350.347, 486.314 379.220, 529.803 448.420, 585.749 503.495, 552.348 "
fill = "blue" stroke = "black"/>
</g>
<g>
<polygon points = "116.355, 200.367 109.882, 191.081 44.241, 216.842 69.418, 257.955 130.715, 294.901 142.495, 293.998 142.652, 298.790 "
fill = "blue" stroke = "black"/>
</g>
<g>
<polygon points = "785.425, 518.505 695.490, 599.578 693.060, 628.893 754.215, 631.427 787.900, 524.428 "
fill = "blue" stroke = "black"/>
</g>
<g>
<polygon points = ""
fill = "blue" stroke = "black"/>
</g>
<g>
<polygon points = "374.874, 778.071 397.961, 836.649 478.664, 800.642 467.620, 731.779 "
fill = "blue" stroke = "black"/>
</g>
<g>
<polygon points = "992.027, 429.682 929.226, 452.673 919.314, 473.236 969.144, 528.764 981.369, 537.770 1076.545, 584.793 1998.749, 573.042 1998.749, 498.821 "
fill = "blue" stroke = "black"/>
</g>
<g>
<polygon points = "138.134, 653.449 135.032, 663.402 157.040, 700.940 167.503, 703.702 210.075, 694.459 233.136, 671.084 247.225, 650.071 223.947, 602.439 234.143, 611.932 183.949, 592.423 "
fill = "blue" stroke = "black"/>
</g>
<g>
<polygon points = "83.905, 450.336 -35.087, 464.727 21.529, 523.533 57.562, 548.968 49.691, 550.959 100.343, 467.996 98.375, 455.193 "
fill = "blue" stroke = "black"/>
</g>
<g>
<polygon points = "196.092, 447.855 187.746, 436.731 149.685, 432.830 98.375, 455.193 100.343, 467.996 118.248, 517.521 164.534, 539.768 "
fill = "blue" stroke = "black"/>
</g>
<g>
<polygon points = "870.818, 832.612 875.997, 862.826 908.931, 898.804 943.485, 857.389 942.107, 828.049 "
fill = "blue" stroke = "black"/>
</g>
<g>
<polygon points = "409.349, 680.200 404.630, 712.870 477.326, 744.972 491.063, 715.826 455.882, 666.315 "
fill = "blue" stroke = "black"/>
</g>
<g>
<polygon points = "665.498, -733.109 601.541, -227.671 652.884, 18.977 685.554, 48.976 720.757, -74.986 "
fill = "blue" stroke = "black"/>
</g>
<g>
<polygon points = "853.332, 91.118 819.508, 79.066 784.994, 137.072 791.555, 144.639 835.446, 130.744 "
fill = "blue" stroke = "black"/>
</g>
<g>
<polygon points = "228.704, 841.414 223.522, 785.769 166.482, 775.077 177.316, 769.179 179.101, 762.959 152.422, 780.654 139.691, 821.897 226.506, 845.541 "
fill = "blue" stroke = "black"/>
</g>
<g>
<polygon points = "174.654, 583.268 183.839, 537.317 177.168, 502.971 118.748, 518.903 118.908, 516.818 172.265, 582.619 "
fill = "blue" stroke = "black"/>
</g>
<g>
<polygon points = "418.213, 222.844 418.190, 222.864 453.734, 255.766 390.378, 246.998 366.040, 268.117 411.562, 306.979 435.745, 305.454 446.713, 229.770 "
fill = "blue" stroke = "black"/>
</g>
<g>
<polygon points = "697.570, 416.519 672.789, 405.316 642.213, 423.118 641.532, 445.551 692.396, 464.486 "
fill = "blue" stroke = "black"/>
</g>
<g>
<polygon points = "503.685, 280.321 460.842, 243.907 424.959, 250.500 431.365, 236.990 437.446, 234.130 446.348, 232.292 435.745, 305.454 462.987, 331.273 483.628, 319.932 501.514, 260.009 "
fill = "blue" stroke = "black"/>
</g>
<g>
<polygon points = ""
fill = "blue" stroke = "black"/>
</g>
<g>
<polygon points = "645.226, 419.617 664.125, 437.595 653.803, 526.498 696.331, 514.430 642.011, 420.695 "
fill = "blue" stroke = "black"/>
</g>
<g>
<polygon points = "908.636, 904.899 968.328, 946.062 953.469, 944.788 1010.690, 911.224 943.485, 857.389 908.931, 898.804 "
fill = "blue" stroke = "black"/>
</g>
<g>
<polygon points = "390.976, 426.240 338.829, 414.221 301.226, 491.061 322.678, 508.071 395.209, 442.573 "
fill = "blue" stroke = "black"/>
</g>
<g>
<polygon points = "809.200, 554.233 813.538, 632.225 1004.936, 665.168 "
fill = "blue" stroke = "black"/>
</g>
<g>
<polygon points = "223.947, 602.439 337.064, 537.968 322.678, 508.071 301.226, 491.061 260.567, 478.861 211.871, 591.197 "
fill = "blue" stroke = "black"/>
</g>
<g>
<polygon points = "787.448, 669.296 723.156, 675.631 705.925, 752.196 738.356, 755.690 789.450, 744.586 789.813, 674.000 "
fill = "blue" stroke = "black"/>
</g>
<g>
<polygon points = "743.516, 797.696 765.190, 840.987 790.842, 853.981 802.549, 838.382 800.589, 753.256 789.450, 744.586 738.356, 755.690 "
fill = "blue" stroke = "black"/>
</g>
<g>
<polygon points = "542.652, 641.043 549.353, 567.980 540.022, 554.814 503.495, 552.348 448.420, 585.749 449.007, 600.602 570.294, 627.377 "
fill = "blue" stroke = "black"/>
</g>
<g>
<polygon points = "939.042, 953.250 965.075, 937.980 1548.616, 1999.145 1998.749, 1999.145 1998.749, 997.126 "
fill = "blue" stroke = "black"/>
</g>
<g>
<polygon points = "480.728, 909.565 504.579, 1002.200 588.997, 946.916 "
fill = "blue" stroke = "black"/>
</g>
<g>
<polygon points = "660.012, 166.868 579.284, 98.151 570.204, 112.758 577.906, 140.057 635.749, 210.456 642.582, 211.439 659.538, 200.351 "
fill = "blue" stroke = "black"/>
</g>
<g>
<polygon points = "871.872, 800.114 781.396, 736.853 786.766, 839.553 871.599, 833.259 "
fill = "blue" stroke = "black"/>
</g>
<g>
<polygon points = ""
fill = "blue" stroke = "black"/>
</g>
<g>
<polygon points = "228.207, 52.002 233.732, 40.001 270.098, 83.677 325.087, 79.017 345.382, 23.591 343.872, 64.241 340.401, 35.778 "
fill = "blue" stroke = "black"/>
</g>
<g>
<polygon points = "739.102, 874.575 790.572, 857.539 790.842, 853.981 765.190, 840.987 715.160, 835.505 701.723, 836.887 693.206, 859.854 "
fill = "blue" stroke = "black"/>
</g>
<g>
<polygon points = "582.875, 333.974 634.718, 317.592 659.727, 294.954 589.020, 269.452 568.503, 324.260 "
fill = "blue" stroke = "black"/>
</g>
<g>
<polygon points = ""
fill = "blue" stroke = "black"/>
</g>
<g>
<polygon points = "766.688, 983.738 841.887, 944.726 848.903, 930.095 830.663, 906.001 805.632, 891.528 779.887, 1007.294 "
fill = "blue" stroke = "black"/>
</g>
<g>
<polygon points = "142.213, 775.697 70.984, 741.116 70.443, 741.143 59.376, 766.487 119.352, 838.067 123.209, 835.001 "
fill = "blue" stroke = "black"/>
</g>
<g>
<polygon points = "118.877, 948.568 103.378, 961.244 69.395, 1999.145 154.233, 1999.145 "
fill = "blue" stroke = "black"/>
</g>
<g>
<polygon points = "657.081, 305.064 666.035, 310.323 674.385, 301.919 631.704, 290.159 641.108, 295.682 683.050, 293.197 745.680, 230.158 721.949, 205.480 659.538, 200.351 642.582, 211.439 "
fill = "blue" stroke = "black"/>
</g>
<g>
<polygon points = ""
fill = "blue" stroke = "black"/>
</g>
<g>
<polygon points = ""
fill = "blue" stroke = "black"/>
</g>
<g>
<polygon points = "633.488, 723.642 637.128, 729.453 614.427, 712.324 574.852, 732.560 544.330, 800.519 539.600, 833.395 546.937, 835.087 565.807, 824.936 627.431, 780.073 "
fill = "blue" stroke = "black"/>
</g>
<g>
<polygon points = "174.264, 501.448 172.983, 501.288 172.749, 306.910 126.667, 368.572 "
fill = "blue" stroke = "black"/>
</g>
<g>
<polygon points = "740.451, 63.983 720.757, -74.986 685.554, 48.976 705.129, 95.195 714.579, 99.726 "
fill = "blue" stroke = "black"/>
</g>
<g>
<polygon points = "294.513, 820.243 294.770, 823.326 356.572, 881.167 366.753, 883.169 385.712, 869.099 397.961, 836.649 413.534, 876.163 415.227, 874.886 352.682, 783.986 "
fill = "blue" stroke = "black"/>
</g>
<g>
<polygon points = "309.120, -423.248 356.378, -79.301 424.786, 20.235 433.199, 23.934 553.010, -14.405 601.541, -227.671 665.498, -733.109 682.603, -995.178 292.893, -995.178 "
fill = "blue" stroke = "black"/>
</g>
<g>
<polygon points = "588.389, 943.495 680.052, 917.092 673.849, 884.904 581.731, 865.583 "
fill = "blue" stroke = "black"/>
</g>
<g>
<polygon points = ""
fill = "blue" stroke = "black"/>
</g>
<g>
<polygon points = "340.236, 150.422 325.087, 79.017 270.098, 83.677 262.083, 119.779 264.089, 157.034 273.901, 181.402 "
fill = "blue" stroke = "black"/>
</g>
<g>
<polygon points = "431.237, 207.725 382.760, 192.461 387.691, 166.781 394.126, 172.218 390.378, 246.998 453.734, 255.766 "
fill = "blue" stroke = "black"/>
</g>
<g>
<polygon points = ""
fill = "blue" stroke = "black"/>
</g>
<g>
<polygon points = "585.181, 498.580 555.316, 510.592 540.022, 554.814 549.097, 567.619 638.932, 519.282 627.014, 503.955 "
fill = "blue" stroke = "black"/>
</g>
<g>
<polygon points = "866.572, 202.564 835.446, 130.744 791.555, 144.639 799.456, 163.721 860.868, 189.402 865.035, 199.019 869.963, 200.824 "
fill = "blue" stroke = "black"/>
</g>
<g>
<polygon points = "540.564, 314.575 549.141, 320.830 582.113, 326.671 569.375, 335.584 565.360, 332.656 589.020, 269.452 562.137, 206.711 "
fill = "blue" stroke = "black"/>
</g>
<g>
<polygon points = ""
fill = "blue" stroke = "black"/>
</g>
<g>
<polygon points = "229.780, 42.762 240.165, 48.884 210.903, 89.520 209.196, 80.352 262.083, 119.779 270.098, 83.677 233.732, 40.001 "
fill = "blue" stroke = "black"/>
</g>
<g>
<polygon points = "681.443, 370.963 672.789, 405.316 697.570, 416.519 704.897, 414.468 713.096, 390.286 699.997, 351.993 "
fill = "blue" stroke = "black"/>
</g>
<g>
<polygon points = "465.252, 728.678 564.982, 640.640 452.334, 631.129 455.882, 666.315 491.063, 715.826 "
fill = "blue" stroke = "black"/>
</g>
<g>
<polygon points = "589.020, 269.452 681.502, 302.808 662.362, 304.576 665.613, 292.189 633.580, 307.235 657.081, 305.064 642.582, 211.439 635.749, 210.456 574.225, 234.922 "
fill = "blue" stroke = "black"/>
</g>
<g>
<polygon points = "768.523, 291.222 758.061, 332.954 827.020, 303.566 840.241, 272.196 835.333, 262.117 788.073, 263.103 "
fill = "blue" stroke = "black"/>
</g>
<g>
<polygon points = "894.015, 484.473 919.314, 473.236 929.226, 452.673 907.835, 396.409 840.036, 402.877 806.631, 458.647 792.311, 487.049 793.258, 501.709 "
fill = "blue" stroke = "black"/>
</g>
<g>
<polygon points = ""
fill = "blue" stroke = "black"/>
</g>
<g>
<polygon points = "962.721, 298.671 912.837, 326.829 926.701, 308.761 919.817, 310.689 944.461, 353.616 969.711, 362.483 1032.659, 333.104 963.990, 298.315 "
fill = "blue" stroke = "black"/>
</g>
<g>
<polygon points = "313.334, 383.586 294.823, 378.175 263.875, 474.078 301.399, 490.709 338.829, 414.221 "
fill = "blue" stroke = "black"/>
</g>
<g>
<polygon points = "830.663, 906.001 848.903, 930.095 877.803, 930.231 908.636, 904.899 908.931, 898.804 875.997, 862.826 "
fill = "blue" stroke = "black"/>
</g>
<g>
<polygon points = "86.995, 272.826 157.965, 307.952 168.120, 284.989 163.507, 246.240 "
fill = "blue" stroke = "black"/>
</g>
<g>
<polygon points = "142.428, 921.453 145.765, 918.880 109.766, 871.581 100.642, 872.013 50.149, 894.384 55.709, 970.366 45.279, 939.792 "
fill = "blue" stroke = "black"/>
</g>
<g>
<polygon points = "551.370, 120.329 540.858, 124.554 499.453, 180.452 507.875, 206.474 562.612, 194.272 568.762, 172.471 "
fill = "blue" stroke = "black"/>
</g>
<g>
<polygon points = "338.090, 538.823 337.064, 537.968 236.261, 595.421 227.283, 609.265 249.425, 654.573 220.950, 645.061 218.403, 631.958 319.525, 646.279 311.585, 652.380 "
fill = "blue" stroke = "black"/>
</g>
<g>
<polygon points = ""
fill = "blue" stroke = "black"/>
</g>
<g>
<polygon points = "355.754, 268.166 346.355, 251.695 253.044, 191.143 276.391, 187.586 252.758, 207.421 250.194, 214.738 254.908, 256.303 331.486, 299.431 "
fill = "blue" stroke = "black"/>
</g>
<g>
<polygon points = "838.381, -54.353 871.951, 90.755 863.805, 88.797 898.344, 62.130 947.469, -748.430 "
fill = "blue" stroke = "black"/>
</g>
<g>
<polygon points = "955.359, 764.760 987.353, 777.985 955.648, 638.854 957.614, 638.838 922.000, 672.894 "
fill = "blue" stroke = "black"/>
</g>
<g>
<polygon points = "715.319, 955.121 727.972, 940.421 779.887, 1007.294 805.632, 891.528 795.716, 882.182 716.412, 957.269 "
fill = "blue" stroke = "black"/>
</g>
<g>
<polygon points = "956.041, 326.590 898.746, 460.307 903.243, 462.185 992.027, 429.682 957.795, 326.603 "
fill = "blue" stroke = "black"/>
</g>
<g>
<polygon points = ""
fill = "blue" stroke = "black"/>
</g>
<g>
<polygon points = "508.090, 950.622 550.037, 831.486 528.387, 825.123 451.706, 912.900 "
fill = "blue" stroke = "black"/>
</g>
<g>
<polygon points = "908.301, 755.684 956.561, 765.257 919.844, 674.955 903.954, 681.317 888.935, 738.010 "
fill = "blue" stroke = "black"/>
</g>
<g>
<polygon points = "166.616, 319.670 150.293, 297.560 141.395, 294.082 130.715, 294.901 58.253, 343.057 71.094, 356.374 126.667, 368.572 172.749, 306.910 "
fill = "blue" stroke = "black"/>
</g>
<g>
<polygon points = "546.772, 643.061 544.429, 621.667 449.007, 600.602 443.039, 641.693 487.396, 682.652 "
fill = "blue" stroke = "black"/>
</g>
<g>
<polygon points = "402.269, 449.037 379.744, 456.538 322.678, 508.071 337.064, 537.968 338.090, 538.823 377.758, 550.163 400.711, 547.178 436.677, 480.546 "
fill = "blue" stroke = "black"/>
</g>
<g>
<polygon points = "593.311, 409.960 584.479, 506.229 621.141, 507.164 639.537, 444.223 577.063, 451.452 "
fill = "blue" stroke = "black"/>
</g>
<g>
<polygon points = "826.675, 1402.241 767.840, 991.776 727.972, 940.421 696.458, 935.394 679.694, 966.844 782.799, 1999.145 829.957, 1999.145 "
fill = "blue" stroke = "black"/>
</g>
<g>
<polygon points = "881.394, 336.390 830.925, 359.309 840.036, 402.877 889.889, 398.121 "
fill = "blue" stroke = "black"/>
</g>
<g>
<polygon points = "527.851, 238.051 507.706, 208.432 460.842, 243.907 503.685, 280.321 "
fill = "blue" stroke = "black"/>
</g>
<g>
<polygon points = "507.875, 206.474 507.706, 208.432 527.851, 238.051 569.637, 253.931 588.115, 229.398 562.612, 194.272 "
fill = "blue" stroke = "black"/>
</g>
<g>
<polygon points = "549.608, 0.546 550.849, 4.712 572.331, -185.290 641.442, 140.745 652.884, 18.977 601.541, -227.671 "
fill = "blue" stroke = "black"/>
</g>
<g>
<polygon points = ""
fill = "blue" stroke = "black"/>
</g>
<g>
<polygon points = "573.684, 112.601 641.131, 87.172 641.442, 140.745 572.331, -185.290 541.962, 11.277 "
fill = "blue" stroke = "black"/>
</g>
<g>
<polygon points = "65.681, 731.444 89.143, 662.027 88.314, 660.630 -40.296, 654.112 "
fill = "blue" stroke = "black"/>
</g>
<g>
<polygon points = "796.574, 886.290 830.663, 906.001 875.997, 862.826 870.937, 833.308 802.549, 838.382 790.050, 855.036 "
fill = "blue" stroke = "black"/>
</g>
<g>
<polygon points = "767.956, 439.307 752.981, 358.713 734.763, 357.482 722.256, 363.267 703.320, 419.119 698.081, 411.783 "
fill = "blue" stroke = "black"/>
</g>
<g>
<polygon points = "236.410, 1033.649 212.624, 938.755 145.765, 918.880 109.268, 947.023 100.111, 1999.145 212.797, 1999.145 "
fill = "blue" stroke = "black"/>
</g>
<g>
<polygon points = "207.381, 360.787 166.850, 473.289 167.431, 480.619 246.303, 386.810 "
fill = "blue" stroke = "black"/>
</g>
<g>
<polygon points = ""
fill = "blue" stroke = "black"/>
</g>
<g>
<polygon points = "364.394, 711.547 389.042, 664.688 377.230, 641.397 371.372, 639.039 311.585, 652.380 300.997, 660.515 312.565, 685.678 "
fill = "blue" stroke = "black"/>
</g>
<g>
<polygon points = "875.558, 199.778 860.868, 189.402 799.456, 163.721 775.939, 200.692 859.466, 219.402 "
fill = "blue" stroke = "black"/>
</g>
<g>
<polygon points = "792.311, 487.049 806.631, 458.647 800.972, 340.524 783.092, 331.720 752.981, 358.713 767.956, 439.307 "
fill = "blue" stroke = "black"/>
</g>
<g>
<polygon points = ""
fill = "blue" stroke = "black"/>
</g>
<g>
<polygon points = "70.984, 741.116 152.422, 780.654 162.075, 774.251 164.217, 704.415 157.735, 702.126 "
fill = "blue" stroke = "black"/>
</g>
<g>
<polygon points = "472.619, 926.891 460.554, 902.772 385.712, 869.099 366.753, 883.169 369.149, 935.783 363.946, 928.540 414.750, 972.844 "
fill = "blue" stroke = "black"/>
</g>
<g>
<polygon points = ""
fill = "blue" stroke = "black"/>
</g>
<g>
<polygon points = "89.143, 662.027 62.266, 741.546 70.984, 741.116 157.735, 702.126 135.032, 663.402 "
fill = "blue" stroke = "black"/>
</g>
<g>
<polygon points = "367.891, 877.137 373.260, 863.679 373.252, 863.493 366.501, 877.632 356.572, 881.167 300.446, 828.638 228.704, 841.414 226.506, 845.541 217.436, 930.706 "
fill = "blue" stroke = "black"/>
</g>
<g>
<polygon points = ""
fill = "blue" stroke = "black"/>
</g>
<g>
<polygon points = "329.758, 340.768 299.617, 367.104 332.263, 406.331 374.465, 406.120 381.367, 348.077 "
fill = "blue" stroke = "black"/>
</g>
<g>
<polygon points = "781.396, 736.853 871.872, 800.114 918.679, 743.027 862.378, 733.531 787.390, 759.081 "
fill = "blue" stroke = "black"/>
</g>
<g>
<polygon points = "519.649, 726.369 546.126, 788.030 575.438, 727.316 517.387, 721.101 519.649, 726.369 "
fill = "blue" stroke = "black"/>
</g>
<g>
<polygon points = "108.459, 960.562 76.865, 933.829 45.279, 939.792 44.622, 959.590 61.128, 919.311 75.636, 968.376 109.157, 959.759 "
fill = "blue" stroke = "black"/>
</g>
<g>
<polygon points = ""
fill = "blue" stroke = "black"/>
</g>
<g>
<polygon points = "209.196, 80.352 207.643, 112.406 264.089, 157.034 262.083, 119.779 "
fill = "blue" stroke = "black"/>
</g>
<g>
<polygon points = ""
fill = "blue" stroke = "black"/>
</g>
<g>
<polygon points = "61.602, 920.914 60.885, 919.573 33.648, 948.925 19.682, 1025.341 75.636, 968.376 "
fill = "blue" stroke = "black"/>
</g>
<g>
<polygon points = "434.861, 124.229 446.071, 105.025 423.451, 77.733 381.406, 71.452 389.215, 138.729 "
fill = "blue" stroke = "black"/>
</g>
<g>
<polygon points = ""
fill = "blue" stroke = "black"/>
</g>
<g>
<polygon points = "736.506, 127.512 714.576, 95.829 690.153, 101.096 645.208, 199.174 721.949, 205.480 "
fill = "blue" stroke = "black"/>
</g>
<g>
<polygon points = "-93.570, 844.509 11.527, 804.633 59.376, 766.487 70.443, 741.143 65.681, 731.444 -40.296, 654.112 -42.551, 652.834 -995.666, 651.841 -995.666, 864.315 "
fill = "blue" stroke = "black"/>
</g>
<g>
<polygon points = "442.934, 46.641 356.378, -79.301 340.401, 35.778 343.872, 64.241 "
fill = "blue" stroke = "black"/>
</g>
<g>
<polygon points = "287.803, 368.321 215.566, 400.505 190.695, 440.661 196.092, 447.855 260.250, 479.593 283.043, 476.643 310.385, 407.665 300.582, 372.639 "
fill = "blue" stroke = "black"/>
</g>
<g>
<polygon points = "459.608, 96.585 472.721, 62.427 425.715, 16.645 413.132, 65.282 446.071, 105.025 "
fill = "blue" stroke = "black"/>
</g>
<g>
<polygon points = "950.365, 956.429 904.080, 983.142 869.521, 1087.704 826.675, 1402.241 829.957, 1999.145 1267.344, 1999.145 "
fill = "blue" stroke = "black"/>
</g>
<g>
<polygon points = "566.019, 252.556 569.902, 255.602 619.637, 216.863 564.152, 196.393 "
fill = "blue" stroke = "black"/>
</g>
<g>
<polygon points = "373.693, 744.671 349.878, 766.611 352.682, 783.986 402.614, 856.556 408.482, 854.872 409.031, 851.415 403.264, 763.901 "
fill = "blue" stroke = "black"/>
</g>
<g>
<polygon points = "57.134, 550.869 50.896, 578.538 98.881, 608.497 121.649, 596.026 87.328, 550.503 "
fill = "blue" stroke = "black"/>
</g>
<g>
<polygon points = "95.030, 214.602 94.298, 35.329 113.944, 95.087 -647.849, 144.938 44.241, 216.842 109.882, 191.081 "
fill = "blue" stroke = "black"/>
</g>
<g>
<polygon points = "684.444, 367.896 722.256, 363.267 734.763, 357.482 690.812, 299.158 683.050, 293.197 649.867, 295.163 "
fill = "blue" stroke = "black"/>
</g>
<g>
<polygon points = "786.888, 511.581 646.558, 418.068 647.197, 417.699 685.392, 514.287 785.305, 515.591 "
fill = "blue" stroke = "black"/>
</g>
<g>
<polygon points = "690.812, 299.158 734.763, 357.482 752.981, 358.713 781.533, 333.117 781.204, 335.954 783.126, 333.969 782.631, 301.595 "
fill = "blue" stroke = "black"/>
</g>
<g>
<polygon points = "869.521, 1087.704 904.080, 983.142 877.803, 930.231 848.903, 930.095 841.887, 944.726 "
fill = "blue" stroke = "black"/>
</g>
<g>
<polygon points = "64.520, 347.808 46.379, 350.949 130.715, 294.901 69.418, 257.955 "
fill = "blue" stroke = "black"/>
</g>
<g>
<polygon points = "-995.666, 131.636 -647.849, 144.938 94.547, 96.357 121.821, 76.951 130.063, 57.973 -199.142, -995.178 -995.666, -995.178 "
fill = "blue" stroke = "black"/>
</g>
<g>
<polygon points = "801.935, 928.523 1519.061, 806.564 979.013, 771.309 942.107, 828.049 943.485, 857.389 1010.690, 911.224 800.512, 934.165 "
fill = "blue" stroke = "black"/>
</g>
<g>
<polygon points = ""
fill = "blue" stroke = "black"/>
</g>
<g>
<polygon points = "258.813, 257.387 164.300, 319.351 202.844, 338.775 252.550, 327.272 "
fill = "blue" stroke = "black"/>
</g>
<g>
<polygon points = "546.126, 788.030 517.387, 721.101 472.784, 701.876 473.721, 696.453 466.421, 697.750 486.830, 708.723 468.407, 736.690 478.664, 800.642 539.060, 837.146 "
fill = "blue" stroke = "black"/>
</g>
<g>
<polygon points = "893.928, 848.208 888.658, 848.272 883.759, 925.338 925.178, 916.306 925.868, 897.789 "
fill = "blue" stroke = "black"/>
</g>
<g>
<polygon points = ""
fill = "blue" stroke = "black"/>
</g>
<g>
<polygon points = "665.498, -733.109 720.757, -74.986 740.451, 63.983 796.868, 60.701 819.262, 12.062 838.381, -54.353 947.469, -748.430 977.923, -995.178 682.603, -995.178 "
fill = "blue" stroke = "black"/>
</g>
<g>
<polygon points = "544.397, 879.008 539.670, 884.166 449.449, 688.625 484.919, 729.375 480.076, 717.192 389.009, 807.194 388.710, 829.161 520.396, 818.629 "
fill = "blue" stroke = "black"/>
</g>
<g>
<polygon points = "126.847, 206.883 120.416, 197.121 94.948, 194.545 64.404, 208.929 136.603, 276.149 "
fill = "blue" stroke = "black"/>
</g>
<g>
<polygon points = "1076.545, 584.793 956.831, 638.325 947.557, 661.217 976.718, 769.472 979.013, 771.309 1519.061, 806.564 1998.749, 800.000 1998.749, 573.042 "
fill = "blue" stroke = "black"/>
</g>
<g>
<polygon points = "164.889, 682.511 162.243, 768.781 175.155, 776.703 218.123, 784.757 227.316, 776.424 210.075, 694.459 119.204, 714.188 "
fill = "blue" stroke = "black"/>
</g>
<g>
<polygon points = "582.788, 877.955 671.037, 870.308 660.060, 901.830 627.304, 791.857 546.937, 835.087 544.829, 832.567 545.965, 831.276 548.226, 836.629 "
fill = "blue" stroke = "black"/>
</g>
<g>
<polygon points = "127.624, 50.173 126.609, 65.925 228.925, 94.565 241.577, 92.269 240.126, 26.111 "
fill = "blue" stroke = "black"/>
</g>
<g>
<polygon points = "649.867, 295.163 657.249, 297.197 634.718, 317.592 643.919, 401.336 655.492, 397.497 684.444, 367.896 "
fill = "blue" stroke = "black"/>
</g>
<g>
<polygon points = "908.271, 563.863 969.144, 528.764 885.164, 435.182 894.015, 484.473 953.018, 458.265 894.918, 489.502 "
fill = "blue" stroke = "black"/>
</g>
<g>
<polygon points = ""
fill = "blue" stroke = "black"/>
</g>
<g>
<polygon points = "955.648, 638.854 1076.545, 584.793 973.925, 534.092 1034.535, 494.682 1038.616, 495.782 898.381, 598.639 891.428, 612.124 918.952, 650.369 895.932, 603.389 897.862, 599.647 957.614, 638.838 "
fill = "blue" stroke = "black"/>
</g>
<g>
<polygon points = "490.311, 450.659 605.368, 409.093 518.868, 387.432 502.109, 392.544 507.418, 456.741 "
fill = "blue" stroke = "black"/>
</g>
<g>
<polygon points = ""
fill = "blue" stroke = "black"/>
</g>
<g>
<polygon points = "170.889, 162.365 195.167, 249.308 220.209, 278.285 242.956, 258.468 270.326, 202.357 271.908, 184.711 169.018, 164.602 "
fill = "blue" stroke = "black"/>
</g>
<g>
<polygon points = "596.780, 671.815 623.493, 637.128 621.329, 583.097 537.409, 565.579 538.220, 564.956 547.609, 650.707 625.373, 684.089 623.493, 637.128 596.780, 671.815 "
fill = "blue" stroke = "black"/>
</g>
<g>
<polygon points = "179.101, 762.959 162.243, 768.781 166.535, 771.414 136.715, 777.596 142.213, 775.697 123.209, 835.001 160.549, 827.578 "
fill = "blue" stroke = "black"/>
</g>
<g>
<polygon points = "549.097, 567.619 549.345, 568.071 621.329, 583.097 642.042, 566.590 648.305, 528.058 638.932, 519.282 "
fill = "blue" stroke = "black"/>
</g>
<g>
<polygon points = "785.305, 515.591 696.331, 514.430 653.803, 526.498 648.207, 528.661 642.042, 566.590 695.490, 599.578 785.425, 518.505 "
fill = "blue" stroke = "black"/>
</g>
<g>
<polygon points = "594.075, 104.913 569.991, 100.807 551.370, 120.329 568.762, 172.471 641.344, 191.848 "
fill = "blue" stroke = "black"/>
</g>
<g>
<polygon points = ""
fill = "blue" stroke = "black"/>
</g>
<g>
<polygon points = "127.624, 50.173 240.126, 26.111 228.207, 52.002 309.120, -423.248 292.893, -995.178 -199.142, -995.178 "
fill = "blue" stroke = "black"/>
</g>
<g>
<polygon points = "402.269, 449.037 436.677, 480.546 459.463, 477.128 455.533, 480.479 458.392, 402.183 422.867, 399.501 401.731, 427.810 "
fill = "blue" stroke = "black"/>
</g>
<g>
<polygon points = "-454.776, 348.722 69.565, 345.153 64.520, 347.808 69.747, 251.932 46.994, 217.128 -647.849, 144.938 -995.666, 131.636 -995.666, 259.499 "
fill = "blue" stroke = "black"/>
</g>
<g>
<polygon points = "391.934, 707.263 376.602, 717.640 370.571, 773.680 374.874, 778.071 458.152, 736.505 "
fill = "blue" stroke = "black"/>
</g>
<g>
<polygon points = "683.050, 293.197 690.812, 299.158 782.631, 301.595 787.220, 275.244 744.217, 231.631 "
fill = "blue" stroke = "black"/>
</g>
<g>
<polygon points = "355.207, 553.096 343.532, 627.835 406.888, 653.333 443.039, 641.693 449.007, 600.602 448.420, 585.749 400.711, 547.178 "
fill = "blue" stroke = "black"/>
</g>
<g>
<polygon points = "389.042, 664.688 364.394, 711.547 375.866, 724.477 404.630, 712.870 409.349, 680.200 "
fill = "blue" stroke = "black"/>
</g>
<g>
<polygon points = "788.704, 632.856 693.060, 628.893 691.215, 632.723 695.549, 653.934 723.156, 675.631 787.448, 669.296 "
fill = "blue" stroke = "black"/>
</g>
<g>
<polygon points = ""
fill = "blue" stroke = "black"/>
</g>
<g>
<polygon points = "300.446, 828.638 302.615, 815.193 289.359, 762.038 277.654, 761.991 227.828, 778.857 223.522, 785.769 228.704, 841.414 "
fill = "blue" stroke = "black"/>
</g>
<g>
<polygon points = "364.899, 155.260 389.215, 138.729 381.406, 71.452 345.382, 23.591 325.087, 79.017 340.236, 150.422 "
fill = "blue" stroke = "black"/>
</g>
<g>
<polygon points = ""
fill = "blue" stroke = "black"/>
</g>
<g>
<polygon points = "621.141, 507.164 648.207, 528.661 653.803, 526.498 664.125, 437.595 691.882, 469.246 641.636, 442.130 639.537, 444.223 "
fill = "blue" stroke = "black"/>
</g>
<g>
<polygon points = "47.831, 345.301 70.529, 355.788 136.201, 292.053 134.596, 290.630 66.664, 308.490 "
fill = "blue" stroke = "black"/>
</g>
<g>
<polygon points = "52.642, 928.455 50.149, 894.384 -56.158, 861.640 33.648, 948.925 "
fill = "blue" stroke = "black"/>
</g>
<g>
<polygon points = "713.056, 631.303 640.443, 725.167 708.643, 740.120 735.740, 619.716 "
fill = "blue" stroke = "black"/>
</g>
<g>
<polygon points = "98.881, 608.497 50.896, 578.538 21.290, 616.109 82.444, 631.572 "
fill = "blue" stroke = "black"/>
</g>
<g>
<polygon points = "164.925, 317.380 166.405, 317.972 253.470, 260.890 254.908, 256.303 250.194, 214.738 259.197, 210.780 256.341, 210.553 267.154, 237.733 208.123, 239.577 153.372, 301.731 "
fill = "blue" stroke = "black"/>
</g>
<g>
<polygon points = "715.258, 373.072 640.300, 368.397 619.258, 395.727 642.213, 423.118 700.520, 389.172 "
fill = "blue" stroke = "black"/>
</g>
<g>
<polygon points = ""
fill = "blue" stroke = "black"/>
</g>
<g>
<polygon points = "550.849, 4.712 553.010, -14.405 433.199, 23.934 472.721, 62.427 "
fill = "blue" stroke = "black"/>
</g>
<g>
<polygon points = "617.337, 272.059 505.872, 229.698 512.972, 222.223 534.970, 225.597 510.273, 268.799 556.880, 315.569 550.975, 316.796 555.371, 317.733 571.074, 262.979 567.069, 237.768 617.744, 271.633 "
fill = "blue" stroke = "black"/>
</g>
<g>
<polygon points = "411.562, 306.979 366.040, 268.117 355.754, 268.166 330.464, 300.748 329.086, 276.296 375.484, 342.327 "
fill = "blue" stroke = "black"/>
</g>
<g>
<polygon points = "768.084, 993.480 842.667, 948.764 860.066, 894.518 861.584, 937.423 858.017, 939.562 827.662, 908.859 825.467, 907.857 810.365, 921.721 766.727, 990.343 "
fill = "blue" stroke = "black"/>
</g>
<g>
<polygon points = "368.552, 883.523 356.572, 881.167 217.436, 930.706 212.624, 938.755 236.410, 1033.649 363.818, 939.714 373.121, 927.649 "
fill = "blue" stroke = "black"/>
</g>
<g>
<polygon points = "288.437, 758.340 302.615, 815.193 370.057, 773.156 370.535, 774.014 296.453, 747.465 "
fill = "blue" stroke = "black"/>
</g>
<g>
<polygon points = "408.717, 951.626 412.843, 1999.145 437.559, 1999.145 500.249, 1017.881 "
fill = "blue" stroke = "black"/>
</g>
<g>
<polygon points = "798.665, 493.328 795.338, 496.114 779.075, 352.565 756.307, 338.230 727.318, 346.598 748.179, 431.517 798.665, 493.328 795.338, 496.114 779.075, 352.565 756.307, 338.230 727.318, 346.598 748.179, 431.517 "
fill = "blue" stroke = "black"/>
</g>
<g>
<polygon points = "790.232, 628.213 788.704, 632.856 787.448, 669.296 789.813, 674.000 855.025, 677.107 869.461, 667.054 869.230, 641.811 "
fill = "blue" stroke = "black"/>
</g>
<g>
<polygon points = "1032.659, 333.104 953.812, 369.903 956.840, 326.940 957.795, 326.603 992.027, 429.682 1998.749, 498.821 1998.749, 349.128 "
fill = "blue" stroke = "black"/>
</g>
<g>
<polygon points = ""
fill = "blue" stroke = "black"/>
</g>
<g>
<polygon points = "296.202, 737.621 326.778, 692.772 314.847, 616.290 343.129, 653.019 342.130, 649.481 239.858, 634.997 224.686, 679.649 "
fill = "blue" stroke = "black"/>
</g>
<g>
<polygon points = ""
fill = "blue" stroke = "black"/>
</g>
<g>
<polygon points = "482.035, 914.638 487.644, 914.960 472.619, 926.891 480.666, 932.275 411.879, 962.748 408.717, 951.626 500.249, 1017.881 504.579, 1002.200 "
fill = "blue" stroke = "black"/>
</g>
<g>
<polygon points = "381.406, 71.452 423.451, 77.733 416.751, 51.293 372.192, 59.209 "
fill = "blue" stroke = "black"/>
</g>
<g>
<polygon points = "806.631, 458.647 840.036, 402.877 829.162, 350.879 821.142, 347.933 801.373, 348.889 "
fill = "blue" stroke = "black"/>
</g>
<g>
<polygon points = ""
fill = "blue" stroke = "black"/>
</g>
<g>
<polygon points = "508.350, 207.944 499.453, 180.452 465.184, 168.542 431.237, 207.725 453.734, 255.766 449.884, 252.202 "
fill = "blue" stroke = "black"/>
</g>
<g>
<polygon points = "545.568, 394.118 556.405, 426.781 615.213, 470.724 631.886, 466.393 636.919, 436.516 524.373, 438.235 517.599, 397.784 574.099, 440.002 596.462, 400.101 575.820, 381.432 "
fill = "blue" stroke = "black"/>
</g>
<g>
<polygon points = ""
fill = "blue" stroke = "black"/>
</g>
<g>
<polygon points = "296.453, 747.465 370.535, 774.014 375.866, 724.477 364.394, 711.547 326.778, 692.772 296.202, 737.621 "
fill = "blue" stroke = "black"/>
</g>
<g>
<polygon points = "394.791, 158.937 354.685, 151.441 394.678, 124.996 346.355, 251.695 359.143, 274.103 390.378, 246.998 "
fill = "blue" stroke = "black"/>
</g>
<g>
<polygon points = "686.483, 933.803 713.988, 938.190 739.102, 874.575 660.574, 849.388 672.461, 844.049 704.936, 845.001 674.242, 883.870 673.849, 884.904 682.715, 930.909 "
fill = "blue" stroke = "black"/>
</g>
<g>
<polygon points = "111.786, 61.775 108.929, 57.456 130.063, 57.973 121.821, 76.951 167.512, 146.048 228.925, 94.565 "
fill = "blue" stroke = "black"/>
</g>
<g>
<polygon points = "828.877, 91.595 825.554, 97.793 796.868, 60.701 740.451, 63.983 714.579, 99.726 713.414, 94.151 736.506, 127.512 784.994, 137.072 819.508, 79.066 "
fill = "blue" stroke = "black"/>
</g>
<g>
<polygon points = "871.599, 833.259 870.818, 832.612 942.107, 828.049 977.358, 773.853 956.561, 765.257 885.454, 751.152 865.316, 756.076 872.269, 751.803 "
fill = "blue" stroke = "black"/>
</g>
<g>
<polygon points = "865.291, 90.885 871.951, 90.755 838.381, -54.353 805.404, 60.204 819.508, 79.066 862.752, 94.474 "
fill = "blue" stroke = "black"/>
</g>
<g>
<polygon points = "172.765, 320.517 172.904, 435.209 190.695, 440.661 180.296, 457.451 163.636, 460.407 166.850, 473.289 213.395, 344.092 164.300, 319.351 "
fill = "blue" stroke = "black"/>
</g>
<g>
<polygon points = "277.654, 761.991 233.136, 671.084 190.942, 713.853 188.417, 688.336 190.673, 681.524 199.411, 757.148 223.029, 780.482 "
fill = "blue" stroke = "black"/>
</g>
<g>
<polygon points = "250.194, 214.738 252.758, 207.421 155.079, 156.470 175.983, 158.857 116.012, 200.154 107.494, 194.864 109.882, 191.081 140.556, 235.087 217.244, 229.223 "
fill = "blue" stroke = "black"/>
</g>
<g>
<polygon points = "100.343, 467.996 49.691, 550.959 87.328, 550.503 118.248, 517.521 "
fill = "blue" stroke = "black"/>
</g>
<g>
<polygon points = "116.012, 200.154 175.983, 158.857 121.821, 76.951 94.547, 96.357 94.948, 194.545 125.545, 197.640 "
fill = "blue" stroke = "black"/>
</g>
<g>
<polygon points = "489.030, 385.519 458.392, 402.183 455.634, 477.702 460.180, 478.353 503.144, 458.697 506.433, 444.834 502.109, 392.544 "
fill = "blue" stroke = "black"/>
</g>
<g>
<polygon points = "747.749, 832.151 738.356, 755.690 726.602, 754.424 691.848, 811.955 701.723, 836.887 "
fill = "blue" stroke = "black"/>
</g>
<g>
<polygon points = "680.316, 973.073 686.483, 933.803 682.715, 930.909 592.996, 955.439 594.952, 948.970 597.793, 945.105 610.432, 1020.447 "
fill = "blue" stroke = "black"/>
</g>
<g>
<polygon points = "11.527, 804.633 108.042, 877.608 120.050, 835.629 121.431, 840.548 59.376, 766.487 "
fill = "blue" stroke = "black"/>
</g>
<g>
<polygon points = "808.054, 348.566 830.925, 359.309 881.394, 336.390 892.230, 320.097 883.464, 312.021 821.086, 317.644 "
fill = "blue" stroke = "black"/>
</g>
<g>
<polygon points = "785.921, 713.621 813.538, 632.225 809.200, 554.233 787.900, 524.428 754.215, 631.427 "
fill = "blue" stroke = "black"/>
</g>
<g>
<polygon points = "285.232, 365.327 252.550, 327.272 202.844, 338.775 207.381, 360.787 246.303, 386.810 286.056, 369.099 "
fill = "blue" stroke = "black"/>
</g>
<g>
<polygon points = "226.788, 60.341 221.081, 53.032 344.954, 35.120 336.262, 65.593 369.050, -170.577 371.254, -57.081 363.274, -29.107 309.120, -423.248 "
fill = "blue" stroke = "black"/>
</g>
<g>
<polygon points = ""
fill = "blue" stroke = "black"/>
</g>
<g>
<polygon points = "363.818, 939.714 236.410, 1033.649 212.797, 1999.145 351.679, 1999.145 "
fill = "blue" stroke = "black"/>
</g>
<g>
<polygon points = "364.314, 645.799 409.349, 680.200 466.327, 663.198 446.511, 617.785 "
fill = "blue" stroke = "black"/>
</g>
<g>
<polygon points = "582.788, 877.955 544.829, 832.567 534.255, 834.242 484.192, 914.762 480.728, 909.565 588.997, 946.916 588.687, 946.979 "
fill = "blue" stroke = "black"/>
</g>
<g>
<polygon points = "623.493, 637.128 599.156, 668.730 613.032, 711.271 633.184, 726.477 680.740, 717.896 700.439, 677.869 690.410, 628.784 692.751, 632.623 "
fill = "blue" stroke = "black"/>
</g>
<g>
<polygon points = "536.441, 479.552 580.308, 551.688 593.311, 409.960 "
fill = "blue" stroke = "black"/>
</g>
<g>
<polygon points = ""
fill = "blue" stroke = "black"/>
</g>
<g>
<polygon points = "443.979, 137.553 499.933, 179.803 540.858, 124.554 452.439, 94.117 434.861, 124.229 "
fill = "blue" stroke = "black"/>
</g>
<g>
<polygon points = "784.962, 514.567 785.827, 469.538 797.596, 494.984 796.905, 496.055 767.956, 439.307 698.081, 411.783 692.396, 464.486 733.741, 503.815 785.245, 514.128 "
fill = "blue" stroke = "black"/>
</g>
<g>
<polygon points = "865.291, 90.885 818.567, 91.796 860.868, 189.402 875.558, 199.778 919.496, 186.156 917.838, 187.546 920.516, 168.506 "
fill = "blue" stroke = "black"/>
</g>
<g>
<polygon points = "690.153, 101.096 646.337, 88.651 580.108, 98.852 660.012, 166.868 "
fill = "blue" stroke = "black"/>
</g>
<g>
<polygon points = "789.600, 142.384 762.668, 132.670 736.506, 127.512 721.949, 205.480 743.110, 227.486 813.546, 169.998 "
fill = "blue" stroke = "black"/>
</g>
<g>
<polygon points = "920.516, 168.506 983.952, 85.852 887.715, 59.184 862.752, 94.474 858.039, 80.692 "
fill = "blue" stroke = "black"/>
</g>
<g>
<polygon points = "77.131, 550.626 118.447, 597.780 132.607, 596.943 102.421, 534.404 "
fill = "blue" stroke = "black"/>
</g>
<g>
<polygon points = "375.062, 176.428 418.175, 222.802 439.909, 197.715 443.979, 137.553 429.713, 116.706 417.548, 119.468 364.899, 155.260 "
fill = "blue" stroke = "black"/>
</g>
<g>
<polygon points = "680.316, 973.073 710.753, 952.440 715.319, 955.121 716.412, 957.269 710.490, 952.618 610.432, 1020.447 606.296, 1999.145 782.799, 1999.145 "
fill = "blue" stroke = "black"/>
</g>
<g>
<polygon points = "76.865, 933.829 108.459, 960.562 158.977, 922.807 125.706, 892.524 "
fill = "blue" stroke = "black"/>
</g>
<g>
<polygon points = "827.020, 303.566 717.368, 350.295 718.029, 353.209 815.743, 352.178 "
fill = "blue" stroke = "black"/>
</g>
<g>
<polygon points = "50.149, 894.384 100.642, 872.013 11.527, 804.633 -93.570, 844.509 -56.158, 861.640 "
fill = "blue" stroke = "black"/>
</g>
<g>
<polygon points = "965.075, 937.980 959.391, 939.899 950.365, 956.429 1267.344, 1999.145 1548.616, 1999.145 "
fill = "blue" stroke = "black"/>
</g>
<g>
<polygon points = "883.759, 925.338 877.803, 930.231 904.080, 983.142 950.365, 956.429 959.391, 939.899 925.178, 916.306 "
fill = "blue" stroke = "black"/>
</g>
<g>
<polygon points = "-3.694, 647.816 64.123, 561.753 63.868, 559.134 52.911, 545.685 21.529, 523.533 "
fill = "blue" stroke = "black"/>
</g>
<g>
<polygon points = "642.042, 566.590 621.329, 583.097 623.493, 637.128 692.751, 632.623 695.490, 599.578 "
fill = "blue" stroke = "black"/>
</g>
<g>
<polygon points = "869.521, 1087.704 842.667, 948.764 768.084, 993.480 826.675, 1402.241 "
fill = "blue" stroke = "black"/>
</g>
<g>
<polygon points = "513.711, 398.776 501.323, 383.039 545.568, 394.118 575.820, 381.432 581.406, 332.981 556.160, 315.917 550.026, 318.884 "
fill = "blue" stroke = "black"/>
</g>
<g>
<polygon points = "172.194, 595.576 160.048, 583.134 227.283, 609.265 240.193, 589.357 236.293, 514.327 183.839, 537.317 "
fill = "blue" stroke = "black"/>
</g>
<g>
<polygon points = "270.326, 202.357 346.355, 251.695 375.062, 176.428 364.899, 155.260 340.236, 150.422 272.130, 182.229 "
fill = "blue" stroke = "black"/>
</g>
<g>
<polygon points = "64.520, 347.808 69.565, 345.153 83.905, 450.336 98.375, 455.193 149.685, 432.830 126.667, 368.572 46.379, 350.949 "
fill = "blue" stroke = "black"/>
</g>
<g>
<polygon points = "126.847, 206.883 136.603, 276.149 131.576, 257.335 180.639, 240.286 "
fill = "blue" stroke = "black"/>
</g>
<g>
<polygon points = "1171.996, 219.780 970.155, 278.280 963.653, 298.145 1032.659, 333.104 1998.749, 349.128 1998.749, 207.549 "
fill = "blue" stroke = "black"/>
</g>
<g>
<polygon points = "587.322, 376.609 601.637, 390.865 642.846, 402.234 643.919, 401.336 634.718, 317.592 582.875, 333.974 "
fill = "blue" stroke = "black"/>
</g>
<g>
<polygon points = "284.092, 367.067 330.231, 296.623 331.019, 310.601 254.512, 305.385 250.996, 344.611 267.591, 361.491 "
fill = "blue" stroke = "black"/>
</g>
<g>
<polygon points = "596.780, 671.815 547.609, 650.707 564.982, 640.640 487.468, 709.067 519.649, 726.369 572.269, 733.880 614.427, 712.324 "
fill = "blue" stroke = "black"/>
</g>
<g>
<polygon points = ""
fill = "blue" stroke = "black"/>
</g>
<g>
<polygon points = "646.865, 83.026 705.129, 95.195 685.554, 48.976 652.884, 18.977 "
fill = "blue" stroke = "black"/>
</g>
<g>
<polygon points = "459.097, 309.950 463.295, 320.548 417.240, 374.233 422.867, 399.501 458.392, 402.183 489.030, 385.519 463.179, 320.255 452.885, 312.247 "
fill = "blue" stroke = "black"/>
</g>
<g>
<polygon points = "977.598, 276.122 1171.996, 219.780 958.291, 202.631 "
fill = "blue" stroke = "black"/>
</g>
<g>
<polygon points = "913.429, 316.284 892.230, 320.097 881.394, 336.390 889.889, 398.121 937.462, 435.587 934.968, 437.366 914.628, 423.242 944.461, 353.616 925.106, 319.903 "
fill = "blue" stroke = "black"/>
</g>
<g>
<polygon points = "583.909, 86.216 578.942, 99.032 550.849, 4.712 472.721, 62.427 459.608, 96.585 540.858, 124.554 551.370, 120.329 583.909, 86.216 573.684, 112.601 569.991, 100.807 "
fill = "blue" stroke = "black"/>
</g>
<g>
<polygon points = "908.271, 563.863 894.918, 489.502 918.008, 484.239 915.684, 480.767 793.258, 501.709 784.244, 515.679 797.955, 548.491 876.726, 601.055 898.099, 599.631 "
fill = "blue" stroke = "black"/>
</g>
<g>
<polygon points = "235.400, 776.294 208.986, 776.717 191.193, 892.684 281.908, 831.939 "
fill = "blue" stroke = "black"/>
</g>
<g>
<polygon points = "913.429, 316.284 925.106, 319.903 963.653, 298.145 970.155, 278.280 946.030, 201.647 920.571, 189.123 "
fill = "blue" stroke = "black"/>
</g>
<g>
<polygon points = ""
fill = "blue" stroke = "black"/>
</g>
<g>
<polygon points = "519.969, 399.555 512.239, 402.016 590.594, 407.970 595.718, 412.579 490.311, 450.659 560.225, 494.450 579.861, 444.308 "
fill = "blue" stroke = "black"/>
</g>
<g>
<polygon points = "1519.061, 806.564 991.945, 896.209 954.532, 936.548 956.174, 953.959 1998.749, 997.126 1998.749, 800.000 "
fill = "blue" stroke = "black"/>
</g>
<g>
<polygon points = "-35.087, 464.727 83.905, 450.336 69.565, 345.153 -454.776, 348.722 "
fill = "blue" stroke = "black"/>
</g>
<g>
<polygon points = "284.092, 367.067 305.112, 388.826 371.177, 346.723 371.193, 346.530 330.231, 296.623 "
fill = "blue" stroke = "black"/>
</g>
<g>
<polygon points = "371.099, 346.623 380.153, 358.284 417.240, 374.233 463.295, 320.548 462.987, 331.273 435.745, 305.454 411.562, 306.979 "
fill = "blue" stroke = "black"/>
</g>
<g>
<polygon points = "732.132, 745.270 640.443, 725.167 619.568, 728.933 618.594, 734.109 635.880, 701.355 625.829, 794.998 621.126, 792.199 691.848, 811.955 "
fill = "blue" stroke = "black"/>
</g>
<g>
<polygon points = "455.533, 480.479 459.463, 477.128 503.495, 552.348 540.022, 554.814 565.911, 479.959 563.287, 476.606 507.418, 456.741 "
fill = "blue" stroke = "black"/>
</g>
<g>
<polygon points = "-42.551, 652.834 17.115, 615.054 -3.694, 647.816 21.529, 523.533 -35.087, 464.727 -454.776, 348.722 -995.666, 259.499 -995.666, 651.841 "
fill = "blue" stroke = "black"/>
</g>
<g>
<polygon points = "138.134, 653.449 189.294, 585.304 183.341, 581.113 110.571, 591.008 110.594, 617.727 "
fill = "blue" stroke = "black"/>
</g>
<g>
<polygon points = "913.429, 316.284 920.571, 189.123 917.967, 186.630 866.572, 202.564 878.143, 196.626 859.466, 219.402 839.040, 255.557 890.118, 320.477 "
fill = "blue" stroke = "black"/>
</g>
<g>
<polygon points = "489.030, 385.519 513.711, 398.776 550.026, 318.884 463.179, 320.255 "
fill = "blue" stroke = "black"/>
</g>
<g>
<polygon points = "920.131, 196.961 1018.542, 431.979 958.291, 202.631 919.617, 188.210 "
fill = "blue" stroke = "black"/>
</g>
<g>
<polygon points = "89.143, 662.027 135.032, 663.402 136.826, 657.645 101.027, 594.301 91.948, 593.541 110.594, 617.727 87.034, 654.293 88.314, 660.630 "
fill = "blue" stroke = "black"/>
</g>
<g>
<polygon points = "439.909, 197.715 499.906, 181.851 499.933, 179.803 443.979, 137.553 "
fill = "blue" stroke = "black"/>
</g>
</svg>
